<?xml version="1.0" encoding="UTF-8" standalone="no"?>
<!-- Created with Inkscape (http://www.inkscape.org/) -->

<svg
   xmlns:dc="http://purl.org/dc/elements/1.1/"
   xmlns:cc="http://creativecommons.org/ns#"
   xmlns:rdf="http://www.w3.org/1999/02/22-rdf-syntax-ns#"
   xmlns:svg="http://www.w3.org/2000/svg"
   xmlns="http://www.w3.org/2000/svg"
   xmlns:sodipodi="http://sodipodi.sourceforge.net/DTD/sodipodi-0.dtd"
   xmlns:inkscape="http://www.inkscape.org/namespaces/inkscape"
   width="142.125"
   height="106.5625"
   id="svg3527"
   version="1.1"
   inkscape:version="0.48.4 r9939"
   sodipodi:docname="digital_object_mctgl_surfels.svg">
  <defs
     id="defs3529" />
  <sodipodi:namedview
     id="base"
     pagecolor="#ffffff"
     bordercolor="#666666"
     borderopacity="1.0"
     inkscape:pageopacity="0.0"
     inkscape:pageshadow="2"
     inkscape:zoom="0.35"
     inkscape:cx="-273.9375"
     inkscape:cy="-149.58093"
     inkscape:document-units="px"
     inkscape:current-layer="layer1"
     showgrid="false"
     fit-margin-top="0"
     fit-margin-left="0"
     fit-margin-right="0"
     fit-margin-bottom="0"
     inkscape:window-width="927"
     inkscape:window-height="1148"
     inkscape:window-x="1745"
     inkscape:window-y="24"
     inkscape:window-maximized="0" />
  <metadata
     id="metadata3532">
    <rdf:RDF>
      <cc:Work
         rdf:about="">
        <dc:format>image/svg+xml</dc:format>
        <dc:type
           rdf:resource="http://purl.org/dc/dcmitype/StillImage" />
        <dc:title></dc:title>
      </cc:Work>
    </rdf:RDF>
  </metadata>
  <g
     inkscape:label="Layer 1"
     inkscape:groupmode="layer"
     id="layer1"
     transform="translate(-648.9375,-276.21875)">
    <rect
       style="fill:#cfcfcf;fill-opacity:1;stroke:#000000;stroke-width:0.5;stroke-miterlimit:4;stroke-opacity:1;stroke-dasharray:none"
       id="rect2991-1-0-8"
       width="35.357143"
       height="35.357143"
       x="720.02979"
       y="347.18359" />
    <rect
       style="fill:#cfcfcf;fill-opacity:1;stroke:#000000;stroke-width:0.5;stroke-miterlimit:4;stroke-opacity:1;stroke-dasharray:none"
       id="rect2991-3-2-9-0"
       width="35.357143"
       height="35.357143"
       x="684.6131"
       y="347.18359" />
    <rect
       style="fill:#cfcfcf;fill-opacity:1;stroke:#000000;stroke-width:0.5;stroke-miterlimit:4;stroke-opacity:1;stroke-dasharray:none"
       id="rect2991-9-4-9-6"
       width="35.357143"
       height="35.357143"
       x="649.19641"
       y="347.18359" />
    <rect
       style="fill:#ffffff;fill-opacity:1;stroke:#000000;stroke-width:0.5;stroke-miterlimit:4;stroke-opacity:1;stroke-dasharray:none"
       id="rect2991-6-9-2-7"
       width="35.357143"
       height="35.357143"
       x="649.19641"
       y="311.82648" />
    <rect
       style="fill:#ffffff;fill-opacity:1;stroke:#000000;stroke-width:0.5;stroke-miterlimit:4;stroke-opacity:1;stroke-dasharray:none"
       id="rect2991-67-9-8-4"
       width="35.357143"
       height="35.357143"
       x="684.6131"
       y="311.82648" />
    <rect
       style="fill:#ffffff;fill-opacity:1;stroke:#000000;stroke-width:0.5;stroke-miterlimit:4;stroke-opacity:1;stroke-dasharray:none"
       id="rect2991-33-1-4-2"
       width="35.357143"
       height="35.357143"
       x="649.19641"
       y="276.46936" />
    <rect
       style="fill:#ffffff;fill-opacity:1;stroke:#000000;stroke-width:0.5;stroke-miterlimit:4;stroke-opacity:1;stroke-dasharray:none"
       id="rect2991-670-5-5-8"
       width="35.357143"
       height="35.357143"
       x="684.6131"
       y="276.46936" />
    <rect
       style="fill:#ffffff;fill-opacity:1;stroke:#000000;stroke-width:0.5;stroke-miterlimit:4;stroke-opacity:1;stroke-dasharray:none"
       id="rect2991-5-2-1-4"
       width="35.357143"
       height="35.357143"
       x="720.02979"
       y="276.46936" />
    <rect
       style="fill:#cfcfcf;fill-opacity:1;stroke:#000000;stroke-width:0.5;stroke-miterlimit:4;stroke-opacity:1;stroke-dasharray:none"
       id="rect2991-7-9-8-1"
       width="35.357143"
       height="35.357143"
       x="720.02979"
       y="311.82648" />
    <rect
       style="fill:#cfcfcf;fill-opacity:1;stroke:#000000;stroke-width:0.5;stroke-miterlimit:4;stroke-opacity:1;stroke-dasharray:none"
       id="rect2991-50-2-7-2"
       width="35.357143"
       height="35.357143"
       x="755.44641"
       y="276.46936" />
    <rect
       style="fill:#cfcfcf;fill-opacity:1;stroke:#000000;stroke-width:0.5;stroke-miterlimit:4;stroke-opacity:1;stroke-dasharray:none"
       id="rect2991-0-5-2-5"
       width="35.357143"
       height="35.357143"
       x="755.44641"
       y="311.82648" />
    <rect
       style="fill:#cfcfcf;fill-opacity:1;stroke:#000000;stroke-width:0.5;stroke-miterlimit:4;stroke-opacity:1;stroke-dasharray:none"
       id="rect2991-57-6-1-3"
       width="35.357143"
       height="35.357143"
       x="755.44641"
       y="347.18359" />
    <path
       sodipodi:type="arc"
       style="fill:#000000;fill-opacity:1;stroke:#000000;stroke-width:0.5;stroke-miterlimit:4;stroke-opacity:1;stroke-dasharray:none"
       id="path3969-26-8"
       sodipodi:cx="323.61609"
       sodipodi:cy="790.88898"
       sodipodi:rx="4.5982089"
       sodipodi:ry="4.5982089"
       d="m 328.2143,790.88898 c 0,2.53952 -2.05869,4.59821 -4.59821,4.59821 -2.53952,0 -4.59821,-2.05869 -4.59821,-4.59821 0,-2.53952 2.05869,-4.59821 4.59821,-4.59821 2.53952,0 4.59821,2.05869 4.59821,4.59821 z"
       transform="translate(343.25893,-426.02687)" />
    <path
       sodipodi:type="arc"
       style="fill:#000000;fill-opacity:1;stroke:#000000;stroke-width:0.5;stroke-miterlimit:4;stroke-opacity:1;stroke-dasharray:none"
       id="path3969-1-2-9"
       sodipodi:cx="323.61609"
       sodipodi:cy="790.88898"
       sodipodi:rx="4.5982089"
       sodipodi:ry="4.5982089"
       d="m 328.2143,790.88898 c 0,2.53952 -2.05869,4.59821 -4.59821,4.59821 -2.53952,0 -4.59821,-2.05869 -4.59821,-4.59821 0,-2.53952 2.05869,-4.59821 4.59821,-4.59821 2.53952,0 4.59821,2.05869 4.59821,4.59821 z"
       transform="translate(378.6756,-426.02687)" />
    <path
       sodipodi:type="arc"
       style="fill:#000000;fill-opacity:1;stroke:#000000;stroke-width:0.5;stroke-miterlimit:4;stroke-opacity:1;stroke-dasharray:none"
       id="path3969-0-6-9"
       sodipodi:cx="323.61609"
       sodipodi:cy="790.88898"
       sodipodi:rx="4.5982089"
       sodipodi:ry="4.5982089"
       d="m 328.2143,790.88898 c 0,2.53952 -2.05869,4.59821 -4.59821,4.59821 -2.53952,0 -4.59821,-2.05869 -4.59821,-4.59821 0,-2.53952 2.05869,-4.59821 4.59821,-4.59821 2.53952,0 4.59821,2.05869 4.59821,4.59821 z"
       transform="translate(414.09229,-426.02689)" />
    <path
       sodipodi:type="arc"
       style="fill:#000000;fill-opacity:1;stroke:#000000;stroke-width:0.5;stroke-miterlimit:4;stroke-opacity:1;stroke-dasharray:none"
       id="path3969-6-1-0"
       sodipodi:cx="323.61609"
       sodipodi:cy="790.88898"
       sodipodi:rx="4.5982089"
       sodipodi:ry="4.5982089"
       d="m 328.2143,790.88898 c 0,2.53952 -2.05869,4.59821 -4.59821,4.59821 -2.53952,0 -4.59821,-2.05869 -4.59821,-4.59821 0,-2.53952 2.05869,-4.59821 4.59821,-4.59821 2.53952,0 4.59821,2.05869 4.59821,4.59821 z"
       transform="translate(449.50896,-426.02687)" />
    <path
       sodipodi:type="arc"
       style="fill:#000000;fill-opacity:1;stroke:#000000;stroke-width:0.5;stroke-miterlimit:4;stroke-opacity:1;stroke-dasharray:none"
       id="path3969-3-1-0"
       sodipodi:cx="323.61609"
       sodipodi:cy="790.88898"
       sodipodi:rx="4.5982089"
       sodipodi:ry="4.5982089"
       d="m 328.2143,790.88898 c 0,2.53952 -2.05869,4.59821 -4.59821,4.59821 -2.53952,0 -4.59821,-2.05869 -4.59821,-4.59821 0,-2.53952 2.05869,-4.59821 4.59821,-4.59821 2.53952,0 4.59821,2.05869 4.59821,4.59821 z"
       transform="translate(449.50896,-461.38399)" />
    <path
       sodipodi:type="arc"
       style="fill:#000000;fill-opacity:1;stroke:#000000;stroke-width:0.5;stroke-miterlimit:4;stroke-opacity:1;stroke-dasharray:none"
       id="path3969-7-7-8"
       sodipodi:cx="323.61609"
       sodipodi:cy="790.88898"
       sodipodi:rx="4.5982089"
       sodipodi:ry="4.5982089"
       d="m 328.2143,790.88898 c 0,2.53952 -2.05869,4.59821 -4.59821,4.59821 -2.53952,0 -4.59821,-2.05869 -4.59821,-4.59821 0,-2.53952 2.05869,-4.59821 4.59821,-4.59821 2.53952,0 4.59821,2.05869 4.59821,4.59821 z"
       transform="translate(414.09229,-461.384)" />
    <path
       sodipodi:type="arc"
       style="fill:#ffffff;fill-opacity:1;stroke:#000000;stroke-width:0.5;stroke-miterlimit:4;stroke-opacity:1;stroke-dasharray:none"
       id="path3969-5-4-4"
       sodipodi:cx="323.61609"
       sodipodi:cy="790.88898"
       sodipodi:rx="4.5982089"
       sodipodi:ry="4.5982089"
       d="m 328.2143,790.88898 c 0,2.53952 -2.05869,4.59821 -4.59821,4.59821 -2.53952,0 -4.59821,-2.05869 -4.59821,-4.59821 0,-2.53952 2.05869,-4.59821 4.59821,-4.59821 2.53952,0 4.59821,2.05869 4.59821,4.59821 z"
       transform="translate(378.6756,-461.384)" />
    <path
       sodipodi:type="arc"
       style="fill:#ffffff;fill-opacity:1;stroke:#000000;stroke-width:0.5;stroke-miterlimit:4;stroke-opacity:1;stroke-dasharray:none"
       id="path3969-9-7-0"
       sodipodi:cx="323.61609"
       sodipodi:cy="790.88898"
       sodipodi:rx="4.5982089"
       sodipodi:ry="4.5982089"
       d="m 328.2143,790.88898 c 0,2.53952 -2.05869,4.59821 -4.59821,4.59821 -2.53952,0 -4.59821,-2.05869 -4.59821,-4.59821 0,-2.53952 2.05869,-4.59821 4.59821,-4.59821 2.53952,0 4.59821,2.05869 4.59821,4.59821 z"
       transform="translate(343.25893,-461.38399)" />
    <path
       sodipodi:type="arc"
       style="fill:#ffffff;fill-opacity:1;stroke:#000000;stroke-width:0.5;stroke-miterlimit:4;stroke-opacity:1;stroke-dasharray:none"
       id="path3969-8-0-0"
       sodipodi:cx="323.61609"
       sodipodi:cy="790.88898"
       sodipodi:rx="4.5982089"
       sodipodi:ry="4.5982089"
       d="m 328.2143,790.88898 c 0,2.53952 -2.05869,4.59821 -4.59821,4.59821 -2.53952,0 -4.59821,-2.05869 -4.59821,-4.59821 0,-2.53952 2.05869,-4.59821 4.59821,-4.59821 2.53952,0 4.59821,2.05869 4.59821,4.59821 z"
       transform="translate(343.25893,-496.74111)" />
    <path
       sodipodi:type="arc"
       style="fill:#ffffff;fill-opacity:1;stroke:#000000;stroke-width:0.5;stroke-miterlimit:4;stroke-opacity:1;stroke-dasharray:none"
       id="path3969-2-1-7"
       sodipodi:cx="323.61609"
       sodipodi:cy="790.88898"
       sodipodi:rx="4.5982089"
       sodipodi:ry="4.5982089"
       d="m 328.2143,790.88898 c 0,2.53952 -2.05869,4.59821 -4.59821,4.59821 -2.53952,0 -4.59821,-2.05869 -4.59821,-4.59821 0,-2.53952 2.05869,-4.59821 4.59821,-4.59821 2.53952,0 4.59821,2.05869 4.59821,4.59821 z"
       transform="translate(378.6756,-496.74112)" />
    <path
       sodipodi:type="arc"
       style="fill:#ffffff;fill-opacity:1;stroke:#000000;stroke-width:0.5;stroke-miterlimit:4;stroke-opacity:1;stroke-dasharray:none"
       id="path3969-60-5-7"
       sodipodi:cx="323.61609"
       sodipodi:cy="790.88898"
       sodipodi:rx="4.5982089"
       sodipodi:ry="4.5982089"
       d="m 328.2143,790.88898 c 0,2.53952 -2.05869,4.59821 -4.59821,4.59821 -2.53952,0 -4.59821,-2.05869 -4.59821,-4.59821 0,-2.53952 2.05869,-4.59821 4.59821,-4.59821 2.53952,0 4.59821,2.05869 4.59821,4.59821 z"
       transform="translate(414.09229,-496.74112)" />
    <path
       sodipodi:type="arc"
       style="fill:#000000;fill-opacity:1;stroke:#000000;stroke-width:0.5;stroke-miterlimit:4;stroke-opacity:1;stroke-dasharray:none"
       id="path3969-09-9-2"
       sodipodi:cx="323.61609"
       sodipodi:cy="790.88898"
       sodipodi:rx="4.5982089"
       sodipodi:ry="4.5982089"
       d="m 328.2143,790.88898 c 0,2.53952 -2.05869,4.59821 -4.59821,4.59821 -2.53952,0 -4.59821,-2.05869 -4.59821,-4.59821 0,-2.53952 2.05869,-4.59821 4.59821,-4.59821 2.53952,0 4.59821,2.05869 4.59821,4.59821 z"
       transform="translate(449.50896,-496.74112)" />
    <path
       style="fill:none;stroke:#000000;stroke-width:1px;stroke-linecap:butt;stroke-linejoin:miter;stroke-opacity:1"
       d="m 666.87504,364.86208 0,-35.3571 35.41666,0 -10e-6,35.3572 -35.41666,0"
       id="path4146-74"
       inkscape:connector-curvature="0" />
    <path
       style="fill:none;stroke:#000000;stroke-width:1px;stroke-linecap:butt;stroke-linejoin:miter;stroke-opacity:1"
       d="m 702.32148,364.86218 0,-35.3572 35.41666,0 -1e-5,35.3572 -35.41666,0"
       id="path4146-0-9"
       inkscape:connector-curvature="0" />
    <path
       style="fill:none;stroke:#000000;stroke-width:1px;stroke-linecap:butt;stroke-linejoin:miter;stroke-opacity:1"
       d="m 737.73813,364.86218 0,-35.3572 35.41666,0 -1e-5,35.3572 -35.41666,0"
       id="path4146-7-9"
       inkscape:connector-curvature="0" />
    <path
       style="fill:none;stroke:#000000;stroke-width:1px;stroke-linecap:butt;stroke-linejoin:miter;stroke-opacity:1"
       d="m 737.67862,329.50498 0,-35.35709 35.41666,-1e-5 -10e-6,35.3572 -35.41666,0"
       id="path4146-70-5"
       inkscape:connector-curvature="0" />
    <path
       style="fill:none;stroke:#000000;stroke-width:1px;stroke-linecap:butt;stroke-linejoin:miter;stroke-opacity:1"
       d="m 702.26194,329.50498 0,-35.35709 35.41666,-1e-5 -10e-6,35.3572 -35.41666,0"
       id="path4146-9-0"
       inkscape:connector-curvature="0" />
    <path
       style="fill:none;stroke:#000000;stroke-width:1px;stroke-linecap:butt;stroke-linejoin:miter;stroke-opacity:1"
       d="m 666.84528,329.50498 0,-35.35709 35.41666,-1e-5 -10e-6,35.3572 -35.41666,0"
       id="path4146-92-1"
       inkscape:connector-curvature="0" />
    <path
       sodipodi:type="arc"
       style="fill:#ff00ff;fill-opacity:1;stroke:#000000;stroke-width:0.5;stroke-miterlimit:4;stroke-opacity:1;stroke-dasharray:none"
       id="path4306"
       sodipodi:cx="215.53572"
       sodipodi:cy="900.75507"
       sodipodi:rx="4.8214288"
       sodipodi:ry="4.8214288"
       d="m 220.35715,900.75507 c 0,2.6628 -2.15863,4.82142 -4.82143,4.82142 -2.6628,0 -4.82143,-2.15862 -4.82143,-4.82142 0,-2.66281 2.15863,-4.82143 4.82143,-4.82143 2.6628,0 4.82143,2.15862 4.82143,4.82143 z"
       transform="translate(451.3393,-553.57149)" />
    <path
       sodipodi:type="arc"
       style="fill:#ff00ff;fill-opacity:1;stroke:#000000;stroke-width:0.5;stroke-miterlimit:4;stroke-opacity:1;stroke-dasharray:none"
       id="path4306-4"
       sodipodi:cx="215.53572"
       sodipodi:cy="900.75507"
       sodipodi:rx="4.8214288"
       sodipodi:ry="4.8214288"
       d="m 220.35715,900.75507 c 0,2.6628 -2.15863,4.82142 -4.82143,4.82142 -2.6628,0 -4.82143,-2.15862 -4.82143,-4.82142 0,-2.66281 2.15863,-4.82143 4.82143,-4.82143 2.6628,0 4.82143,2.15862 4.82143,4.82143 z"
       transform="translate(504.43454,-571.24999)" />
    <path
       sodipodi:type="arc"
       style="fill:#ff00ff;fill-opacity:1;stroke:#000000;stroke-width:0.5;stroke-miterlimit:4;stroke-opacity:1;stroke-dasharray:none"
       id="path4306-0"
       sodipodi:cx="215.53572"
       sodipodi:cy="900.75507"
       sodipodi:rx="4.8214288"
       sodipodi:ry="4.8214288"
       d="m 220.35715,900.75507 c 0,2.6628 -2.15863,4.82142 -4.82143,4.82142 -2.6628,0 -4.82143,-2.15862 -4.82143,-4.82142 0,-2.66281 2.15863,-4.82143 4.82143,-4.82143 2.6628,0 4.82143,2.15862 4.82143,4.82143 z"
       transform="translate(486.78576,-553.57149)" />
    <path
       sodipodi:type="arc"
       style="fill:#ff00ff;fill-opacity:1;stroke:#000000;stroke-width:0.5;stroke-miterlimit:4;stroke-opacity:1;stroke-dasharray:none"
       id="path4306-8"
       sodipodi:cx="215.53572"
       sodipodi:cy="900.75507"
       sodipodi:rx="4.8214288"
       sodipodi:ry="4.8214288"
       d="m 220.35715,900.75507 c 0,2.6628 -2.15863,4.82142 -4.82143,4.82142 -2.6628,0 -4.82143,-2.15862 -4.82143,-4.82142 0,-2.66281 2.15863,-4.82143 4.82143,-4.82143 2.6628,0 4.82143,2.15862 4.82143,4.82143 z"
       transform="translate(522.17264,-588.92861)" />
    <path
       sodipodi:type="arc"
       style="fill:#ff00ff;fill-opacity:1;stroke:#000000;stroke-width:0.5;stroke-miterlimit:4;stroke-opacity:1;stroke-dasharray:none"
       id="path4306-1"
       sodipodi:cx="215.53572"
       sodipodi:cy="900.75507"
       sodipodi:rx="4.8214288"
       sodipodi:ry="4.8214288"
       d="m 220.35715,900.75507 c 0,2.6628 -2.15863,4.82142 -4.82143,4.82142 -2.6628,0 -4.82143,-2.15862 -4.82143,-4.82142 0,-2.66281 2.15863,-4.82143 4.82143,-4.82143 2.6628,0 4.82143,2.15862 4.82143,4.82143 z"
       transform="translate(539.85123,-606.60718)" />
  </g>
</svg>
