<?xml version="1.0" encoding="UTF-8" standalone="no"?>
<!-- Created with Inkscape (http://www.inkscape.org/) -->

<svg
   xmlns:dc="http://purl.org/dc/elements/1.1/"
   xmlns:cc="http://creativecommons.org/ns#"
   xmlns:rdf="http://www.w3.org/1999/02/22-rdf-syntax-ns#"
   xmlns:svg="http://www.w3.org/2000/svg"
   xmlns="http://www.w3.org/2000/svg"
   xmlns:sodipodi="http://sodipodi.sourceforge.net/DTD/sodipodi-0.dtd"
   xmlns:inkscape="http://www.inkscape.org/namespaces/inkscape"
   width="115.93751"
   height="80.433006"
   id="svg3137"
   version="1.1"
   inkscape:version="0.48.4 r9939"
   sodipodi:docname="digital_object_points.svg">
  <defs
     id="defs3139" />
  <sodipodi:namedview
     id="base"
     pagecolor="#ffffff"
     bordercolor="#666666"
     borderopacity="1.0"
     inkscape:pageopacity="0.0"
     inkscape:pageshadow="2"
     inkscape:zoom="0.35"
     inkscape:cx="110.1027"
     inkscape:cy="65.932437"
     inkscape:document-units="px"
     inkscape:current-layer="layer1"
     showgrid="false"
     fit-margin-top="0"
     fit-margin-left="0"
     fit-margin-right="0"
     fit-margin-bottom="0"
     inkscape:window-width="927"
     inkscape:window-height="1148"
     inkscape:window-x="1745"
     inkscape:window-y="24"
     inkscape:window-maximized="0" />
  <metadata
     id="metadata3142">
    <rdf:RDF>
      <cc:Work
         rdf:about="">
        <dc:format>image/svg+xml</dc:format>
        <dc:type
           rdf:resource="http://purl.org/dc/dcmitype/StillImage" />
        <dc:title></dc:title>
      </cc:Work>
    </rdf:RDF>
  </metadata>
  <g
     inkscape:label="Layer 1"
     inkscape:groupmode="layer"
     id="layer1"
     transform="translate(-264.8973,-517.86161)">
    <path
       sodipodi:type="arc"
       style="fill:#000000;fill-opacity:1;stroke:#000000;stroke-width:0.5;stroke-miterlimit:4;stroke-opacity:1;stroke-dasharray:none"
       id="path3969-99"
       sodipodi:cx="323.61609"
       sodipodi:cy="790.88898"
       sodipodi:rx="4.5982089"
       sodipodi:ry="4.5982089"
       d="m 328.2143,790.88898 c 0,2.53952 -2.05869,4.59821 -4.59821,4.59821 -2.53952,0 -4.59821,-2.05869 -4.59821,-4.59821 0,-2.53952 2.05869,-4.59821 4.59821,-4.59821 2.53952,0 4.59821,2.05869 4.59821,4.59821 z"
       transform="translate(-53.883951,-197.45538)" />
    <path
       sodipodi:type="arc"
       style="fill:#000000;fill-opacity:1;stroke:#000000;stroke-width:0.5;stroke-miterlimit:4;stroke-opacity:1;stroke-dasharray:none"
       id="path3969-1-9"
       sodipodi:cx="323.61609"
       sodipodi:cy="790.88898"
       sodipodi:rx="4.5982089"
       sodipodi:ry="4.5982089"
       d="m 328.2143,790.88898 c 0,2.53952 -2.05869,4.59821 -4.59821,4.59821 -2.53952,0 -4.59821,-2.05869 -4.59821,-4.59821 0,-2.53952 2.05869,-4.59821 4.59821,-4.59821 2.53952,0 4.59821,2.05869 4.59821,4.59821 z"
       transform="translate(-18.467281,-197.45538)" />
    <path
       sodipodi:type="arc"
       style="fill:#000000;fill-opacity:1;stroke:#000000;stroke-width:0.5;stroke-miterlimit:4;stroke-opacity:1;stroke-dasharray:none"
       id="path3969-0-9"
       sodipodi:cx="323.61609"
       sodipodi:cy="790.88898"
       sodipodi:rx="4.5982089"
       sodipodi:ry="4.5982089"
       d="m 328.2143,790.88898 c 0,2.53952 -2.05869,4.59821 -4.59821,4.59821 -2.53952,0 -4.59821,-2.05869 -4.59821,-4.59821 0,-2.53952 2.05869,-4.59821 4.59821,-4.59821 2.53952,0 4.59821,2.05869 4.59821,4.59821 z"
       transform="translate(16.949409,-197.4554)" />
    <path
       sodipodi:type="arc"
       style="fill:#000000;fill-opacity:1;stroke:#000000;stroke-width:0.5;stroke-miterlimit:4;stroke-opacity:1;stroke-dasharray:none"
       id="path3969-6-7"
       sodipodi:cx="323.61609"
       sodipodi:cy="790.88898"
       sodipodi:rx="4.5982089"
       sodipodi:ry="4.5982089"
       d="m 328.2143,790.88898 c 0,2.53952 -2.05869,4.59821 -4.59821,4.59821 -2.53952,0 -4.59821,-2.05869 -4.59821,-4.59821 0,-2.53952 2.05869,-4.59821 4.59821,-4.59821 2.53952,0 4.59821,2.05869 4.59821,4.59821 z"
       transform="translate(52.366059,-197.45538)" />
    <path
       sodipodi:type="arc"
       style="fill:#000000;fill-opacity:1;stroke:#000000;stroke-width:0.5;stroke-miterlimit:4;stroke-opacity:1;stroke-dasharray:none"
       id="path3969-3-6"
       sodipodi:cx="323.61609"
       sodipodi:cy="790.88898"
       sodipodi:rx="4.5982089"
       sodipodi:ry="4.5982089"
       d="m 328.2143,790.88898 c 0,2.53952 -2.05869,4.59821 -4.59821,4.59821 -2.53952,0 -4.59821,-2.05869 -4.59821,-4.59821 0,-2.53952 2.05869,-4.59821 4.59821,-4.59821 2.53952,0 4.59821,2.05869 4.59821,4.59821 z"
       transform="translate(52.366059,-232.8125)" />
    <path
       sodipodi:type="arc"
       style="fill:#000000;fill-opacity:1;stroke:#000000;stroke-width:0.5;stroke-miterlimit:4;stroke-opacity:1;stroke-dasharray:none"
       id="path3969-7-1"
       sodipodi:cx="323.61609"
       sodipodi:cy="790.88898"
       sodipodi:rx="4.5982089"
       sodipodi:ry="4.5982089"
       d="m 328.2143,790.88898 c 0,2.53952 -2.05869,4.59821 -4.59821,4.59821 -2.53952,0 -4.59821,-2.05869 -4.59821,-4.59821 0,-2.53952 2.05869,-4.59821 4.59821,-4.59821 2.53952,0 4.59821,2.05869 4.59821,4.59821 z"
       transform="translate(16.949409,-232.81251)" />
    <path
       sodipodi:type="arc"
       style="fill:#ffffff;fill-opacity:1;stroke:#000000;stroke-width:0.5;stroke-miterlimit:4;stroke-opacity:1;stroke-dasharray:none"
       id="path3969-5-6"
       sodipodi:cx="323.61609"
       sodipodi:cy="790.88898"
       sodipodi:rx="4.5982089"
       sodipodi:ry="4.5982089"
       d="m 328.2143,790.88898 c 0,2.53952 -2.05869,4.59821 -4.59821,4.59821 -2.53952,0 -4.59821,-2.05869 -4.59821,-4.59821 0,-2.53952 2.05869,-4.59821 4.59821,-4.59821 2.53952,0 4.59821,2.05869 4.59821,4.59821 z"
       transform="translate(-18.467281,-232.81251)" />
    <path
       sodipodi:type="arc"
       style="fill:#ffffff;fill-opacity:1;stroke:#000000;stroke-width:0.5;stroke-miterlimit:4;stroke-opacity:1;stroke-dasharray:none"
       id="path3969-9-2"
       sodipodi:cx="323.61609"
       sodipodi:cy="790.88898"
       sodipodi:rx="4.5982089"
       sodipodi:ry="4.5982089"
       d="m 328.2143,790.88898 c 0,2.53952 -2.05869,4.59821 -4.59821,4.59821 -2.53952,0 -4.59821,-2.05869 -4.59821,-4.59821 0,-2.53952 2.05869,-4.59821 4.59821,-4.59821 2.53952,0 4.59821,2.05869 4.59821,4.59821 z"
       transform="translate(-53.883951,-232.8125)" />
    <path
       sodipodi:type="arc"
       style="fill:#ffffff;fill-opacity:1;stroke:#000000;stroke-width:0.5;stroke-miterlimit:4;stroke-opacity:1;stroke-dasharray:none"
       id="path3969-8-3"
       sodipodi:cx="323.61609"
       sodipodi:cy="790.88898"
       sodipodi:rx="4.5982089"
       sodipodi:ry="4.5982089"
       d="m 328.2143,790.88898 c 0,2.53952 -2.05869,4.59821 -4.59821,4.59821 -2.53952,0 -4.59821,-2.05869 -4.59821,-4.59821 0,-2.53952 2.05869,-4.59821 4.59821,-4.59821 2.53952,0 4.59821,2.05869 4.59821,4.59821 z"
       transform="translate(-53.883951,-268.16963)" />
    <path
       sodipodi:type="arc"
       style="fill:#ffffff;fill-opacity:1;stroke:#000000;stroke-width:0.5;stroke-miterlimit:4;stroke-opacity:1;stroke-dasharray:none"
       id="path3969-2-8"
       sodipodi:cx="323.61609"
       sodipodi:cy="790.88898"
       sodipodi:rx="4.5982089"
       sodipodi:ry="4.5982089"
       d="m 328.2143,790.88898 c 0,2.53952 -2.05869,4.59821 -4.59821,4.59821 -2.53952,0 -4.59821,-2.05869 -4.59821,-4.59821 0,-2.53952 2.05869,-4.59821 4.59821,-4.59821 2.53952,0 4.59821,2.05869 4.59821,4.59821 z"
       transform="translate(-18.467281,-268.16964)" />
    <path
       sodipodi:type="arc"
       style="fill:#ffffff;fill-opacity:1;stroke:#000000;stroke-width:0.5;stroke-miterlimit:4;stroke-opacity:1;stroke-dasharray:none"
       id="path3969-60-0"
       sodipodi:cx="323.61609"
       sodipodi:cy="790.88898"
       sodipodi:rx="4.5982089"
       sodipodi:ry="4.5982089"
       d="m 328.2143,790.88898 c 0,2.53952 -2.05869,4.59821 -4.59821,4.59821 -2.53952,0 -4.59821,-2.05869 -4.59821,-4.59821 0,-2.53952 2.05869,-4.59821 4.59821,-4.59821 2.53952,0 4.59821,2.05869 4.59821,4.59821 z"
       transform="translate(16.949409,-268.16964)" />
    <path
       sodipodi:type="arc"
       style="fill:#000000;fill-opacity:1;stroke:#000000;stroke-width:0.5;stroke-miterlimit:4;stroke-opacity:1;stroke-dasharray:none"
       id="path3969-09-5"
       sodipodi:cx="323.61609"
       sodipodi:cy="790.88898"
       sodipodi:rx="4.5982089"
       sodipodi:ry="4.5982089"
       d="m 328.2143,790.88898 c 0,2.53952 -2.05869,4.59821 -4.59821,4.59821 -2.53952,0 -4.59821,-2.05869 -4.59821,-4.59821 0,-2.53952 2.05869,-4.59821 4.59821,-4.59821 2.53952,0 4.59821,2.05869 4.59821,4.59821 z"
       transform="translate(52.366059,-268.16964)" />
  </g>
</svg>
