<?xml version="1.0" encoding="UTF-8" standalone="no"?>
<!-- Created with Inkscape (http://www.inkscape.org/) -->

<svg
   xmlns:dc="http://purl.org/dc/elements/1.1/"
   xmlns:cc="http://creativecommons.org/ns#"
   xmlns:rdf="http://www.w3.org/1999/02/22-rdf-syntax-ns#"
   xmlns:svg="http://www.w3.org/2000/svg"
   xmlns="http://www.w3.org/2000/svg"
   xmlns:sodipodi="http://sodipodi.sourceforge.net/DTD/sodipodi-0.dtd"
   xmlns:inkscape="http://www.inkscape.org/namespaces/inkscape"
   width="116.16966"
   height="80.642822"
   id="svg3349"
   version="1.1"
   inkscape:version="0.48.4 r9939"
   sodipodi:docname="digtal_object_mctgl.svg">
  <defs
     id="defs3351" />
  <sodipodi:namedview
     id="base"
     pagecolor="#ffffff"
     bordercolor="#666666"
     borderopacity="1.0"
     inkscape:pageopacity="0.0"
     inkscape:pageshadow="2"
     inkscape:zoom="0.35"
     inkscape:cx="35.93752"
     inkscape:cy="26.044037"
     inkscape:document-units="px"
     inkscape:current-layer="layer1"
     showgrid="false"
     fit-margin-top="0"
     fit-margin-left="0"
     fit-margin-right="0"
     fit-margin-bottom="0"
     inkscape:window-width="927"
     inkscape:window-height="1148"
     inkscape:window-x="1745"
     inkscape:window-y="24"
     inkscape:window-maximized="0" />
  <metadata
     id="metadata3354">
    <rdf:RDF>
      <cc:Work
         rdf:about="">
        <dc:format>image/svg+xml</dc:format>
        <dc:type
           rdf:resource="http://purl.org/dc/dcmitype/StillImage" />
        <dc:title></dc:title>
      </cc:Work>
    </rdf:RDF>
  </metadata>
  <g
     inkscape:label="Layer 1"
     inkscape:groupmode="layer"
     id="layer1"
     transform="translate(-339.06248,-477.7634)">
    <path
       sodipodi:type="arc"
       style="fill:#000000;fill-opacity:1;stroke:#000000;stroke-width:0.5;stroke-miterlimit:4;stroke-opacity:1;stroke-dasharray:none"
       id="path3969-26-8-9"
       sodipodi:cx="323.61609"
       sodipodi:cy="790.88898"
       sodipodi:rx="4.5982089"
       sodipodi:ry="4.5982089"
       d="m 328.2143,790.88898 c 0,2.53952 -2.05869,4.59821 -4.59821,4.59821 -2.53952,0 -4.59821,-2.05869 -4.59821,-4.59821 0,-2.53952 2.05869,-4.59821 4.59821,-4.59821 2.53952,0 4.59821,2.05869 4.59821,4.59821 z"
       transform="translate(20.513382,-237.34378)" />
    <path
       sodipodi:type="arc"
       style="fill:#000000;fill-opacity:1;stroke:#000000;stroke-width:0.5;stroke-miterlimit:4;stroke-opacity:1;stroke-dasharray:none"
       id="path3969-1-2-9-4"
       sodipodi:cx="323.61609"
       sodipodi:cy="790.88898"
       sodipodi:rx="4.5982089"
       sodipodi:ry="4.5982089"
       d="m 328.2143,790.88898 c 0,2.53952 -2.05869,4.59821 -4.59821,4.59821 -2.53952,0 -4.59821,-2.05869 -4.59821,-4.59821 0,-2.53952 2.05869,-4.59821 4.59821,-4.59821 2.53952,0 4.59821,2.05869 4.59821,4.59821 z"
       transform="translate(55.930052,-237.34378)" />
    <path
       sodipodi:type="arc"
       style="fill:#000000;fill-opacity:1;stroke:#000000;stroke-width:0.5;stroke-miterlimit:4;stroke-opacity:1;stroke-dasharray:none"
       id="path3969-0-6-9-7"
       sodipodi:cx="323.61609"
       sodipodi:cy="790.88898"
       sodipodi:rx="4.5982089"
       sodipodi:ry="4.5982089"
       d="m 328.2143,790.88898 c 0,2.53952 -2.05869,4.59821 -4.59821,4.59821 -2.53952,0 -4.59821,-2.05869 -4.59821,-4.59821 0,-2.53952 2.05869,-4.59821 4.59821,-4.59821 2.53952,0 4.59821,2.05869 4.59821,4.59821 z"
       transform="translate(91.346742,-237.3438)" />
    <path
       sodipodi:type="arc"
       style="fill:#000000;fill-opacity:1;stroke:#000000;stroke-width:0.5;stroke-miterlimit:4;stroke-opacity:1;stroke-dasharray:none"
       id="path3969-6-1-0-2"
       sodipodi:cx="323.61609"
       sodipodi:cy="790.88898"
       sodipodi:rx="4.5982089"
       sodipodi:ry="4.5982089"
       d="m 328.2143,790.88898 c 0,2.53952 -2.05869,4.59821 -4.59821,4.59821 -2.53952,0 -4.59821,-2.05869 -4.59821,-4.59821 0,-2.53952 2.05869,-4.59821 4.59821,-4.59821 2.53952,0 4.59821,2.05869 4.59821,4.59821 z"
       transform="translate(126.76339,-237.34378)" />
    <path
       sodipodi:type="arc"
       style="fill:#000000;fill-opacity:1;stroke:#000000;stroke-width:0.5;stroke-miterlimit:4;stroke-opacity:1;stroke-dasharray:none"
       id="path3969-3-1-0-2"
       sodipodi:cx="323.61609"
       sodipodi:cy="790.88898"
       sodipodi:rx="4.5982089"
       sodipodi:ry="4.5982089"
       d="m 328.2143,790.88898 c 0,2.53952 -2.05869,4.59821 -4.59821,4.59821 -2.53952,0 -4.59821,-2.05869 -4.59821,-4.59821 0,-2.53952 2.05869,-4.59821 4.59821,-4.59821 2.53952,0 4.59821,2.05869 4.59821,4.59821 z"
       transform="translate(126.76339,-272.7009)" />
    <path
       sodipodi:type="arc"
       style="fill:#000000;fill-opacity:1;stroke:#000000;stroke-width:0.5;stroke-miterlimit:4;stroke-opacity:1;stroke-dasharray:none"
       id="path3969-7-7-8-6"
       sodipodi:cx="323.61609"
       sodipodi:cy="790.88898"
       sodipodi:rx="4.5982089"
       sodipodi:ry="4.5982089"
       d="m 328.2143,790.88898 c 0,2.53952 -2.05869,4.59821 -4.59821,4.59821 -2.53952,0 -4.59821,-2.05869 -4.59821,-4.59821 0,-2.53952 2.05869,-4.59821 4.59821,-4.59821 2.53952,0 4.59821,2.05869 4.59821,4.59821 z"
       transform="translate(91.346742,-272.70091)" />
    <path
       sodipodi:type="arc"
       style="fill:#ffffff;fill-opacity:1;stroke:#000000;stroke-width:0.5;stroke-miterlimit:4;stroke-opacity:1;stroke-dasharray:none"
       id="path3969-5-4-4-3"
       sodipodi:cx="323.61609"
       sodipodi:cy="790.88898"
       sodipodi:rx="4.5982089"
       sodipodi:ry="4.5982089"
       d="m 328.2143,790.88898 c 0,2.53952 -2.05869,4.59821 -4.59821,4.59821 -2.53952,0 -4.59821,-2.05869 -4.59821,-4.59821 0,-2.53952 2.05869,-4.59821 4.59821,-4.59821 2.53952,0 4.59821,2.05869 4.59821,4.59821 z"
       transform="translate(55.930052,-272.70091)" />
    <path
       sodipodi:type="arc"
       style="fill:#ffffff;fill-opacity:1;stroke:#000000;stroke-width:0.5;stroke-miterlimit:4;stroke-opacity:1;stroke-dasharray:none"
       id="path3969-9-7-0-2"
       sodipodi:cx="323.61609"
       sodipodi:cy="790.88898"
       sodipodi:rx="4.5982089"
       sodipodi:ry="4.5982089"
       d="m 328.2143,790.88898 c 0,2.53952 -2.05869,4.59821 -4.59821,4.59821 -2.53952,0 -4.59821,-2.05869 -4.59821,-4.59821 0,-2.53952 2.05869,-4.59821 4.59821,-4.59821 2.53952,0 4.59821,2.05869 4.59821,4.59821 z"
       transform="translate(20.513382,-272.7009)" />
    <path
       sodipodi:type="arc"
       style="fill:#ffffff;fill-opacity:1;stroke:#000000;stroke-width:0.5;stroke-miterlimit:4;stroke-opacity:1;stroke-dasharray:none"
       id="path3969-8-0-0-8"
       sodipodi:cx="323.61609"
       sodipodi:cy="790.88898"
       sodipodi:rx="4.5982089"
       sodipodi:ry="4.5982089"
       d="m 328.2143,790.88898 c 0,2.53952 -2.05869,4.59821 -4.59821,4.59821 -2.53952,0 -4.59821,-2.05869 -4.59821,-4.59821 0,-2.53952 2.05869,-4.59821 4.59821,-4.59821 2.53952,0 4.59821,2.05869 4.59821,4.59821 z"
       transform="translate(20.513382,-308.05802)" />
    <path
       sodipodi:type="arc"
       style="fill:#ffffff;fill-opacity:1;stroke:#000000;stroke-width:0.5;stroke-miterlimit:4;stroke-opacity:1;stroke-dasharray:none"
       id="path3969-2-1-7-4"
       sodipodi:cx="323.61609"
       sodipodi:cy="790.88898"
       sodipodi:rx="4.5982089"
       sodipodi:ry="4.5982089"
       d="m 328.2143,790.88898 c 0,2.53952 -2.05869,4.59821 -4.59821,4.59821 -2.53952,0 -4.59821,-2.05869 -4.59821,-4.59821 0,-2.53952 2.05869,-4.59821 4.59821,-4.59821 2.53952,0 4.59821,2.05869 4.59821,4.59821 z"
       transform="translate(55.930052,-308.05803)" />
    <path
       sodipodi:type="arc"
       style="fill:#ffffff;fill-opacity:1;stroke:#000000;stroke-width:0.5;stroke-miterlimit:4;stroke-opacity:1;stroke-dasharray:none"
       id="path3969-60-5-7-0"
       sodipodi:cx="323.61609"
       sodipodi:cy="790.88898"
       sodipodi:rx="4.5982089"
       sodipodi:ry="4.5982089"
       d="m 328.2143,790.88898 c 0,2.53952 -2.05869,4.59821 -4.59821,4.59821 -2.53952,0 -4.59821,-2.05869 -4.59821,-4.59821 0,-2.53952 2.05869,-4.59821 4.59821,-4.59821 2.53952,0 4.59821,2.05869 4.59821,4.59821 z"
       transform="translate(91.346742,-308.05803)" />
    <path
       sodipodi:type="arc"
       style="fill:#000000;fill-opacity:1;stroke:#000000;stroke-width:0.5;stroke-miterlimit:4;stroke-opacity:1;stroke-dasharray:none"
       id="path3969-09-9-2-9"
       sodipodi:cx="323.61609"
       sodipodi:cy="790.88898"
       sodipodi:rx="4.5982089"
       sodipodi:ry="4.5982089"
       d="m 328.2143,790.88898 c 0,2.53952 -2.05869,4.59821 -4.59821,4.59821 -2.53952,0 -4.59821,-2.05869 -4.59821,-4.59821 0,-2.53952 2.05869,-4.59821 4.59821,-4.59821 2.53952,0 4.59821,2.05869 4.59821,4.59821 z"
       transform="translate(126.76339,-308.05803)" />
    <path
       style="fill:none;stroke:#000000;stroke-width:1px;stroke-linecap:butt;stroke-linejoin:miter;stroke-opacity:1"
       d="m 344.12948,553.54517 0,-35.3571 35.41666,0 -10e-6,35.3572 -35.41666,0"
       id="path4146-74-7"
       inkscape:connector-curvature="0" />
    <path
       style="fill:none;stroke:#000000;stroke-width:1px;stroke-linecap:butt;stroke-linejoin:miter;stroke-opacity:1"
       d="m 379.57592,553.54527 0,-35.3572 35.41666,0 -10e-6,35.3572 -35.41666,0"
       id="path4146-0-9-0"
       inkscape:connector-curvature="0" />
    <path
       style="fill:none;stroke:#000000;stroke-width:1px;stroke-linecap:butt;stroke-linejoin:miter;stroke-opacity:1"
       d="m 414.99257,553.54527 0,-35.3572 35.41666,0 -10e-6,35.3572 -35.41666,0"
       id="path4146-7-9-0"
       inkscape:connector-curvature="0" />
    <path
       style="fill:none;stroke:#000000;stroke-width:1px;stroke-linecap:butt;stroke-linejoin:miter;stroke-opacity:1"
       d="m 414.93306,518.18807 0,-35.35709 35.41666,-1e-5 -10e-6,35.3572 -35.41666,0"
       id="path4146-70-5-8"
       inkscape:connector-curvature="0" />
    <path
       style="fill:none;stroke:#000000;stroke-width:1px;stroke-linecap:butt;stroke-linejoin:miter;stroke-opacity:1"
       d="m 379.51638,518.18807 0,-35.35709 35.41666,-1e-5 -1e-5,35.3572 -35.41666,0"
       id="path4146-9-0-2"
       inkscape:connector-curvature="0" />
    <path
       style="fill:none;stroke:#000000;stroke-width:1px;stroke-linecap:butt;stroke-linejoin:miter;stroke-opacity:1"
       d="m 344.09972,518.18807 0,-35.35709 35.41666,-1e-5 -1e-5,35.3572 -35.41666,0"
       id="path4146-92-1-9"
       inkscape:connector-curvature="0" />
    <path
       sodipodi:type="arc"
       style="fill:#ff00ff;fill-opacity:1;stroke:#000000;stroke-width:0.5;stroke-miterlimit:4;stroke-opacity:1;stroke-dasharray:none"
       id="path4306-3"
       sodipodi:cx="215.53572"
       sodipodi:cy="900.75507"
       sodipodi:rx="4.8214288"
       sodipodi:ry="4.8214288"
       d="m 220.35715,900.75507 c 0,2.6628 -2.15863,4.82142 -4.82143,4.82142 -2.6628,0 -4.82143,-2.15862 -4.82143,-4.82142 0,-2.66281 2.15863,-4.82143 4.82143,-4.82143 2.6628,0 4.82143,2.15862 4.82143,4.82143 z"
       transform="translate(128.59373,-364.88841)" />
    <path
       sodipodi:type="arc"
       style="fill:#ff00ff;fill-opacity:1;stroke:#000000;stroke-width:0.5;stroke-miterlimit:4;stroke-opacity:1;stroke-dasharray:none"
       id="path4306-4-6"
       sodipodi:cx="215.53572"
       sodipodi:cy="900.75507"
       sodipodi:rx="4.8214288"
       sodipodi:ry="4.8214288"
       d="m 220.35715,900.75507 c 0,2.6628 -2.15863,4.82142 -4.82143,4.82142 -2.6628,0 -4.82143,-2.15862 -4.82143,-4.82142 0,-2.66281 2.15863,-4.82143 4.82143,-4.82143 2.6628,0 4.82143,2.15862 4.82143,4.82143 z"
       transform="translate(181.68897,-382.56691)" />
    <path
       sodipodi:type="arc"
       style="fill:#ff00ff;fill-opacity:1;stroke:#000000;stroke-width:0.5;stroke-miterlimit:4;stroke-opacity:1;stroke-dasharray:none"
       id="path4306-0-6"
       sodipodi:cx="215.53572"
       sodipodi:cy="900.75507"
       sodipodi:rx="4.8214288"
       sodipodi:ry="4.8214288"
       d="m 220.35715,900.75507 c 0,2.6628 -2.15863,4.82142 -4.82143,4.82142 -2.6628,0 -4.82143,-2.15862 -4.82143,-4.82142 0,-2.66281 2.15863,-4.82143 4.82143,-4.82143 2.6628,0 4.82143,2.15862 4.82143,4.82143 z"
       transform="translate(164.04019,-364.88841)" />
    <path
       sodipodi:type="arc"
       style="fill:#ff00ff;fill-opacity:1;stroke:#000000;stroke-width:0.5;stroke-miterlimit:4;stroke-opacity:1;stroke-dasharray:none"
       id="path4306-8-9"
       sodipodi:cx="215.53572"
       sodipodi:cy="900.75507"
       sodipodi:rx="4.8214288"
       sodipodi:ry="4.8214288"
       d="m 220.35715,900.75507 c 0,2.6628 -2.15863,4.82142 -4.82143,4.82142 -2.6628,0 -4.82143,-2.15862 -4.82143,-4.82142 0,-2.66281 2.15863,-4.82143 4.82143,-4.82143 2.6628,0 4.82143,2.15862 4.82143,4.82143 z"
       transform="translate(199.42707,-400.24553)" />
    <path
       sodipodi:type="arc"
       style="fill:#ff00ff;fill-opacity:1;stroke:#000000;stroke-width:0.5;stroke-miterlimit:4;stroke-opacity:1;stroke-dasharray:none"
       id="path4306-1-8"
       sodipodi:cx="215.53572"
       sodipodi:cy="900.75507"
       sodipodi:rx="4.8214288"
       sodipodi:ry="4.8214288"
       d="m 220.35715,900.75507 c 0,2.6628 -2.15863,4.82142 -4.82143,4.82142 -2.6628,0 -4.82143,-2.15862 -4.82143,-4.82142 0,-2.66281 2.15863,-4.82143 4.82143,-4.82143 2.6628,0 4.82143,2.15862 4.82143,4.82143 z"
       transform="translate(217.10566,-417.9241)" />
    <path
       style="fill:none;stroke:#fc00ff;stroke-width:1px;stroke-linecap:butt;stroke-linejoin:miter;stroke-opacity:1"
       d="m 344.12948,535.86662 35.44644,4e-5 17.64878,-17.67849 17.70833,-17.6786 17.70836,-17.6786 0,0"
       id="path4686"
       inkscape:connector-curvature="0" />
  </g>
</svg>
