<?xml version="1.0" encoding="UTF-8" standalone="no"?>
<!-- Created with Inkscape (http://www.inkscape.org/) -->

<svg
   xmlns:dc="http://purl.org/dc/elements/1.1/"
   xmlns:cc="http://creativecommons.org/ns#"
   xmlns:rdf="http://www.w3.org/1999/02/22-rdf-syntax-ns#"
   xmlns:svg="http://www.w3.org/2000/svg"
   xmlns="http://www.w3.org/2000/svg"
   xmlns:sodipodi="http://sodipodi.sourceforge.net/DTD/sodipodi-0.dtd"
   xmlns:inkscape="http://www.inkscape.org/namespaces/inkscape"
   width="115.93752"
   height="80.432999"
   id="svg3234"
   version="1.1"
   inkscape:version="0.48.4 r9939"
   sodipodi:docname="digital_object_mcgrid.svg">
  <defs
     id="defs3236" />
  <sodipodi:namedview
     id="base"
     pagecolor="#ffffff"
     bordercolor="#666666"
     borderopacity="1.0"
     inkscape:pageopacity="0.0"
     inkscape:pageshadow="2"
     inkscape:zoom="0.35"
     inkscape:cx="57.959844"
     inkscape:cy="40.218147"
     inkscape:document-units="px"
     inkscape:current-layer="layer1"
     showgrid="false"
     fit-margin-top="0"
     fit-margin-left="0"
     fit-margin-right="0"
     fit-margin-bottom="0"
     inkscape:window-width="927"
     inkscape:window-height="1148"
     inkscape:window-x="1745"
     inkscape:window-y="24"
     inkscape:window-maximized="0" />
  <metadata
     id="metadata3239">
    <rdf:RDF>
      <cc:Work
         rdf:about="">
        <dc:format>image/svg+xml</dc:format>
        <dc:type
           rdf:resource="http://purl.org/dc/dcmitype/StillImage" />
        <dc:title></dc:title>
      </cc:Work>
    </rdf:RDF>
  </metadata>
  <g
     inkscape:label="Layer 1"
     inkscape:groupmode="layer"
     id="layer1"
     transform="translate(-317.04016,-492.14733)">
    <path
       sodipodi:type="arc"
       style="fill:#000000;fill-opacity:1;stroke:#000000;stroke-width:0.5;stroke-miterlimit:4;stroke-opacity:1;stroke-dasharray:none"
       id="path3969-26-7"
       sodipodi:cx="323.61609"
       sodipodi:cy="790.88898"
       sodipodi:rx="4.5982089"
       sodipodi:ry="4.5982089"
       d="m 328.2143,790.88898 c 0,2.53952 -2.05869,4.59821 -4.59821,4.59821 -2.53952,0 -4.59821,-2.05869 -4.59821,-4.59821 0,-2.53952 2.05869,-4.59821 4.59821,-4.59821 2.53952,0 4.59821,2.05869 4.59821,4.59821 z"
       transform="translate(-1.7410939,-223.16967)" />
    <path
       sodipodi:type="arc"
       style="fill:#000000;fill-opacity:1;stroke:#000000;stroke-width:0.5;stroke-miterlimit:4;stroke-opacity:1;stroke-dasharray:none"
       id="path3969-1-2-0"
       sodipodi:cx="323.61609"
       sodipodi:cy="790.88898"
       sodipodi:rx="4.5982089"
       sodipodi:ry="4.5982089"
       d="m 328.2143,790.88898 c 0,2.53952 -2.05869,4.59821 -4.59821,4.59821 -2.53952,0 -4.59821,-2.05869 -4.59821,-4.59821 0,-2.53952 2.05869,-4.59821 4.59821,-4.59821 2.53952,0 4.59821,2.05869 4.59821,4.59821 z"
       transform="translate(33.675566,-223.16967)" />
    <path
       sodipodi:type="arc"
       style="fill:#000000;fill-opacity:1;stroke:#000000;stroke-width:0.5;stroke-miterlimit:4;stroke-opacity:1;stroke-dasharray:none"
       id="path3969-0-6-1"
       sodipodi:cx="323.61609"
       sodipodi:cy="790.88898"
       sodipodi:rx="4.5982089"
       sodipodi:ry="4.5982089"
       d="m 328.2143,790.88898 c 0,2.53952 -2.05869,4.59821 -4.59821,4.59821 -2.53952,0 -4.59821,-2.05869 -4.59821,-4.59821 0,-2.53952 2.05869,-4.59821 4.59821,-4.59821 2.53952,0 4.59821,2.05869 4.59821,4.59821 z"
       transform="translate(69.092256,-223.16969)" />
    <path
       sodipodi:type="arc"
       style="fill:#000000;fill-opacity:1;stroke:#000000;stroke-width:0.5;stroke-miterlimit:4;stroke-opacity:1;stroke-dasharray:none"
       id="path3969-6-1-8"
       sodipodi:cx="323.61609"
       sodipodi:cy="790.88898"
       sodipodi:rx="4.5982089"
       sodipodi:ry="4.5982089"
       d="m 328.2143,790.88898 c 0,2.53952 -2.05869,4.59821 -4.59821,4.59821 -2.53952,0 -4.59821,-2.05869 -4.59821,-4.59821 0,-2.53952 2.05869,-4.59821 4.59821,-4.59821 2.53952,0 4.59821,2.05869 4.59821,4.59821 z"
       transform="translate(104.50892,-223.16967)" />
    <path
       sodipodi:type="arc"
       style="fill:#000000;fill-opacity:1;stroke:#000000;stroke-width:0.5;stroke-miterlimit:4;stroke-opacity:1;stroke-dasharray:none"
       id="path3969-3-1-1"
       sodipodi:cx="323.61609"
       sodipodi:cy="790.88898"
       sodipodi:rx="4.5982089"
       sodipodi:ry="4.5982089"
       d="m 328.2143,790.88898 c 0,2.53952 -2.05869,4.59821 -4.59821,4.59821 -2.53952,0 -4.59821,-2.05869 -4.59821,-4.59821 0,-2.53952 2.05869,-4.59821 4.59821,-4.59821 2.53952,0 4.59821,2.05869 4.59821,4.59821 z"
       transform="translate(104.50892,-258.52679)" />
    <path
       sodipodi:type="arc"
       style="fill:#000000;fill-opacity:1;stroke:#000000;stroke-width:0.5;stroke-miterlimit:4;stroke-opacity:1;stroke-dasharray:none"
       id="path3969-7-7-0"
       sodipodi:cx="323.61609"
       sodipodi:cy="790.88898"
       sodipodi:rx="4.5982089"
       sodipodi:ry="4.5982089"
       d="m 328.2143,790.88898 c 0,2.53952 -2.05869,4.59821 -4.59821,4.59821 -2.53952,0 -4.59821,-2.05869 -4.59821,-4.59821 0,-2.53952 2.05869,-4.59821 4.59821,-4.59821 2.53952,0 4.59821,2.05869 4.59821,4.59821 z"
       transform="translate(69.092256,-258.5268)" />
    <path
       sodipodi:type="arc"
       style="fill:#000000;fill-opacity:1;stroke:#000000;stroke-width:0.5;stroke-miterlimit:4;stroke-opacity:1;stroke-dasharray:none"
       id="path3969-09-9-5"
       sodipodi:cx="323.61609"
       sodipodi:cy="790.88898"
       sodipodi:rx="4.5982089"
       sodipodi:ry="4.5982089"
       d="m 328.2143,790.88898 c 0,2.53952 -2.05869,4.59821 -4.59821,4.59821 -2.53952,0 -4.59821,-2.05869 -4.59821,-4.59821 0,-2.53952 2.05869,-4.59821 4.59821,-4.59821 2.53952,0 4.59821,2.05869 4.59821,4.59821 z"
       transform="translate(104.50892,-293.88392)" />
    <path
       style="fill:none;stroke:#000000;stroke-width:1px;stroke-linecap:butt;stroke-linejoin:miter;stroke-opacity:1"
       d="m 321.875,567.71932 0,-35.35712 35.41666,-10e-6 -10e-6,35.35715 -35.41666,0"
       id="path4146-3"
       inkscape:connector-curvature="0" />
    <path
       style="fill:none;stroke:#000000;stroke-width:1px;stroke-linecap:butt;stroke-linejoin:miter;stroke-opacity:1"
       d="m 357.32144,567.71934 0,-35.35712 35.41666,-10e-6 -10e-6,35.35715 -35.41666,0"
       id="path4146-0-0"
       inkscape:connector-curvature="0" />
    <path
       style="fill:none;stroke:#000000;stroke-width:1px;stroke-linecap:butt;stroke-linejoin:miter;stroke-opacity:1"
       d="m 392.73809,567.71934 0,-35.35712 35.41667,-10e-6 -1e-5,35.35715 -35.41667,0"
       id="path4146-7-8"
       inkscape:connector-curvature="0" />
    <path
       style="fill:none;stroke:#000000;stroke-width:1px;stroke-linecap:butt;stroke-linejoin:miter;stroke-opacity:1"
       d="m 392.67858,532.36222 0,-35.35712 35.41667,-1e-5 -1e-5,35.35715 -35.41667,0"
       id="path4146-70-9"
       inkscape:connector-curvature="0" />
    <path
       style="fill:none;stroke:#000000;stroke-width:1px;stroke-linecap:butt;stroke-linejoin:miter;stroke-opacity:1"
       d="m 357.2619,532.36222 0,-35.35712 35.41666,-1e-5 -1e-5,35.35715 -35.41666,0"
       id="path4146-9-8"
       inkscape:connector-curvature="0" />
    <path
       style="fill:none;stroke:#000000;stroke-width:1px;stroke-linecap:butt;stroke-linejoin:miter;stroke-opacity:1"
       d="m 321.84524,532.36222 0,-35.35712 35.41666,-1e-5 -1e-5,35.35715 -35.41666,0"
       id="path4146-92-8"
       inkscape:connector-curvature="0" />
    <path
       sodipodi:type="arc"
       style="fill:#ffffff;fill-opacity:1;stroke:#000000;stroke-width:0.5;stroke-miterlimit:4;stroke-opacity:1;stroke-dasharray:none"
       id="path3969-60-5-4"
       sodipodi:cx="323.61609"
       sodipodi:cy="790.88898"
       sodipodi:rx="4.5982089"
       sodipodi:ry="4.5982089"
       d="m 328.2143,790.88898 c 0,2.53952 -2.05869,4.59821 -4.59821,4.59821 -2.53952,0 -4.59821,-2.05869 -4.59821,-4.59821 0,-2.53952 2.05869,-4.59821 4.59821,-4.59821 2.53952,0 4.59821,2.05869 4.59821,4.59821 z"
       transform="translate(69.092256,-293.88392)" />
    <path
       sodipodi:type="arc"
       style="fill:#ffffff;fill-opacity:1;stroke:#000000;stroke-width:0.5;stroke-miterlimit:4;stroke-opacity:1;stroke-dasharray:none"
       id="path3969-2-1-73"
       sodipodi:cx="323.61609"
       sodipodi:cy="790.88898"
       sodipodi:rx="4.5982089"
       sodipodi:ry="4.5982089"
       d="m 328.2143,790.88898 c 0,2.53952 -2.05869,4.59821 -4.59821,4.59821 -2.53952,0 -4.59821,-2.05869 -4.59821,-4.59821 0,-2.53952 2.05869,-4.59821 4.59821,-4.59821 2.53952,0 4.59821,2.05869 4.59821,4.59821 z"
       transform="translate(33.675566,-293.88392)" />
    <path
       sodipodi:type="arc"
       style="fill:#ffffff;fill-opacity:1;stroke:#000000;stroke-width:0.5;stroke-miterlimit:4;stroke-opacity:1;stroke-dasharray:none"
       id="path3969-8-0-1"
       sodipodi:cx="323.61609"
       sodipodi:cy="790.88898"
       sodipodi:rx="4.5982089"
       sodipodi:ry="4.5982089"
       d="m 328.2143,790.88898 c 0,2.53952 -2.05869,4.59821 -4.59821,4.59821 -2.53952,0 -4.59821,-2.05869 -4.59821,-4.59821 0,-2.53952 2.05869,-4.59821 4.59821,-4.59821 2.53952,0 4.59821,2.05869 4.59821,4.59821 z"
       transform="translate(-1.7410939,-293.88391)" />
    <path
       sodipodi:type="arc"
       style="fill:#ffffff;fill-opacity:1;stroke:#000000;stroke-width:0.5;stroke-miterlimit:4;stroke-opacity:1;stroke-dasharray:none"
       id="path3969-9-7-09"
       sodipodi:cx="323.61609"
       sodipodi:cy="790.88898"
       sodipodi:rx="4.5982089"
       sodipodi:ry="4.5982089"
       d="m 328.2143,790.88898 c 0,2.53952 -2.05869,4.59821 -4.59821,4.59821 -2.53952,0 -4.59821,-2.05869 -4.59821,-4.59821 0,-2.53952 2.05869,-4.59821 4.59821,-4.59821 2.53952,0 4.59821,2.05869 4.59821,4.59821 z"
       transform="translate(-1.7410939,-258.52679)" />
    <path
       sodipodi:type="arc"
       style="fill:#ffffff;fill-opacity:1;stroke:#000000;stroke-width:0.5;stroke-miterlimit:4;stroke-opacity:1;stroke-dasharray:none"
       id="path3969-5-4-8"
       sodipodi:cx="323.61609"
       sodipodi:cy="790.88898"
       sodipodi:rx="4.5982089"
       sodipodi:ry="4.5982089"
       d="m 328.2143,790.88898 c 0,2.53952 -2.05869,4.59821 -4.59821,4.59821 -2.53952,0 -4.59821,-2.05869 -4.59821,-4.59821 0,-2.53952 2.05869,-4.59821 4.59821,-4.59821 2.53952,0 4.59821,2.05869 4.59821,4.59821 z"
       transform="translate(33.675566,-258.5268)" />
  </g>
</svg>
