<?xml version="1.0" encoding="UTF-8" standalone="no"?>
<!-- Created with Inkscape (http://www.inkscape.org/) -->
<svg xmlns:dc="http://purl.org/dc/elements/1.1/" xmlns:cc="http://creativecommons.org/ns#" xmlns:rdf="http://www.w3.org/1999/02/22-rdf-syntax-ns#" xmlns:svg="http://www.w3.org/2000/svg" xmlns="http://www.w3.org/2000/svg" xmlns:sodipodi="http://sodipodi.sourceforge.net/DTD/sodipodi-0.dtd" xmlns:inkscape="http://www.inkscape.org/namespaces/inkscape" width="813.60706" height="333.06992" id="svg3636" version="1.1" inkscape:version="0.48.1 " sodipodi:docname="Nouveau document 4">
  <defs id="defs3638">
    <clipPath clipPathUnits="userSpaceOnUse" id="clipPath3189">
      <path inkscape:connector-curvature="0" d="M 6.827,6.827 1239.898,6.827 1239.898,877.063 6.827,877.063 6.827,6.827 z" id="path3191"/>
    </clipPath>
    <clipPath clipPathUnits="userSpaceOnUse" id="clipPath3169">
      <path inkscape:connector-curvature="0" d="M 6.827,6.827 1239.898,6.827 1239.898,877.063 6.827,877.063 6.827,6.827 z" id="path3171"/>
    </clipPath>
    <clipPath clipPathUnits="userSpaceOnUse" id="clipPath3153">
      <path inkscape:connector-curvature="0" d="M 6.827,6.827 1239.898,6.827 1239.898,877.063 6.827,877.063 6.827,6.827 z" id="path3155"/>
    </clipPath>
    <clipPath clipPathUnits="userSpaceOnUse" id="clipPath3129">
      <path inkscape:connector-curvature="0" d="M 6.827,6.827 1239.898,6.827 1239.898,877.063 6.827,877.063 6.827,6.827 z" id="path3131"/>
    </clipPath>
    <clipPath clipPathUnits="userSpaceOnUse" id="clipPath3101">
      <path inkscape:connector-curvature="0" d="M 6.827,6.827 1239.898,6.827 1239.898,877.063 6.827,877.063 6.827,6.827 z" id="path3103"/>
    </clipPath>
    <clipPath clipPathUnits="userSpaceOnUse" id="clipPath3071">
      <path inkscape:connector-curvature="0" d="M 6.827,6.827 1239.898,6.827 1239.898,877.063 6.827,877.063 6.827,6.827 z" id="path3073"/>
    </clipPath>
    <clipPath clipPathUnits="userSpaceOnUse" id="clipPath3051">
      <path inkscape:connector-curvature="0" d="M 6.827,6.827 1239.898,6.827 1239.898,877.063 6.827,877.063 6.827,6.827 z" id="path3053"/>
    </clipPath>
    <clipPath clipPathUnits="userSpaceOnUse" id="clipPath3027">
      <path inkscape:connector-curvature="0" d="M 6.827,6.827 1239.898,6.827 1239.898,877.063 6.827,877.063 6.827,6.827 z" id="path3029"/>
    </clipPath>
  </defs>
  <sodipodi:namedview id="base" pagecolor="#ffffff" bordercolor="#666666" borderopacity="1.0" inkscape:pageopacity="0.0" inkscape:pageshadow="2" inkscape:zoom="0.70683594" inkscape:cx="373.12798" inkscape:cy="43.484779" inkscape:document-units="px" inkscape:current-layer="layer1" showgrid="false" fit-margin-top="0" fit-margin-left="0" fit-margin-right="0" fit-margin-bottom="0" inkscape:window-width="1366" inkscape:window-height="716" inkscape:window-x="-8" inkscape:window-y="-8" inkscape:window-maximized="1"/>
  <metadata id="metadata3641">
    <rdf:RDF>
      <cc:Work rdf:about="">
        <dc:format>image/svg+xml</dc:format>
        <dc:type rdf:resource="http://purl.org/dc/dcmitype/StillImage"/>
        <dc:title/>
      </cc:Work>
    </rdf:RDF>
  </metadata>
  <g inkscape:label="Calque 1" inkscape:groupmode="layer" id="layer1" transform="translate(-1.8720235,-258.7877)">
    <g id="g3835" transform="matrix(5.9071969,0,0,5.9071969,99.457723,-2114.0028)">
      <g id="g3023" transform="matrix(1.25,0,0,-1.25,-162.1793,718.47916)">
        <g clip-path="url(#clipPath3027)" id="g3025">
          <g transform="translate(137.2547,210.1912)" id="g3031">
            <path id="path3033" style="fill:#c8cbe8;fill-opacity:1;fill-rule:nonzero;stroke:none" d="M 0,0 1.634,0.205 C 3.524,0.409 3.728,0.971 3.218,2.554 2.86,3.78 1.379,7.764 -0.051,11.441 L -10.42,11.441 C -10.93,10.113 -12.258,6.129 -12.973,3.984 -13.944,1.022 -13.484,0.358 -11.186,0.153 L -9.654,0 -9.654,-1.175 -20.584,-1.175 -20.584,0 C -17.264,0.358 -16.855,0.664 -15.068,5.21 L -4.546,32.331 -3.371,32.791 0.255,23.087 C 2.656,16.6 4.903,10.113 6.895,4.904 8.529,0.613 9.194,0.255 12.36,0 L 12.36,-1.175 0,-1.175 0,0 z M -9.756,13.382 -0.715,13.382 -5.21,25.947 -5.312,25.947 -9.756,13.382 z" inkscape:connector-curvature="0"/>
          </g>
          <g transform="translate(183.3129,208.624)" id="g3035">
            <path id="path3037" style="fill:#96a0d3;fill-opacity:1;fill-rule:nonzero;stroke:none" d="M 0,0 -1.355,0 -23.965,27.456 -24.069,27.456 -24.069,14.17 C -24.069,8.7 -23.861,5.887 -23.652,4.272 -23.392,2.449 -21.985,1.719 -18.547,1.563 L -18.547,0.365 -31.05,0.365 -31.05,1.563 C -28.185,1.667 -26.83,2.449 -26.57,4.272 -26.362,5.887 -26.153,8.7 -26.153,14.17 L -26.153,25.476 C -26.153,29.227 -26.205,30.06 -27.143,31.259 -28.133,32.509 -29.539,32.874 -31.728,33.03 L -31.728,34.228 -24.121,34.228 -2.188,7.971 -2.084,7.971 -2.084,20.422 C -2.084,25.893 -2.292,28.706 -2.501,30.321 -2.761,32.144 -4.168,32.874 -7.606,33.03 L -7.606,34.228 4.897,34.228 4.897,33.03 C 2.032,32.926 0.677,32.144 0.417,30.321 0.208,28.706 0,25.893 0,20.422 L 0,0 z" inkscape:connector-curvature="0"/>
          </g>
          <g transform="translate(197.8288,218.875)" id="g3039">
            <path id="path3041" style="fill:#1d50a0;fill-opacity:1;fill-rule:nonzero;stroke:none" d="M 0,0 C 0,-7.461 0.548,-7.94 6.16,-8.35 L 6.16,-9.925 -12.047,-9.925 -12.047,-8.35 C -6.297,-7.94 -5.749,-7.461 -5.749,0 L -5.749,24.641 C -5.749,32.102 -6.297,32.581 -11.772,32.992 L -11.772,34.566 5.613,34.566 C 9.993,34.566 13.894,33.95 16.427,32.239 19.166,30.528 20.945,27.447 20.945,23.478 20.945,17.797 17.454,13.758 11.909,11.499 13.142,9.445 15.948,4.723 18.001,1.711 20.466,-1.916 21.903,-3.764 23.751,-5.818 25.188,-7.529 26.421,-8.624 28.884,-9.24 L 28.748,-10.541 27.789,-10.541 C 19.918,-10.335 17.522,-7.94 14.921,-4.175 12.8,-1.095 9.925,3.97 8.009,7.187 6.913,8.967 5.818,9.651 3.696,9.651 L 0,9.651 0,0 z M 0,11.636 3.97,11.636 C 6.777,11.636 8.967,11.979 10.815,13.485 13.758,15.811 14.784,19.166 14.784,22.519 14.784,29.706 9.583,32.581 4.449,32.581 2.122,32.581 1.164,32.444 0.616,32.239 0.205,32.102 0,31.76 0,30.391 L 0,11.636 z" inkscape:connector-curvature="0"/>
          </g>
        </g>
      </g>
      <g transform="matrix(1.25,0,0,-1.25,-15.617298,410.37516)" id="g3043">
        <path id="path3045" style="fill:#1d50a0;fill-opacity:1;fill-rule:nonzero;stroke:none" d="M 0,0 -0.332,-0.845 -0.722,-0.845 0.668,2.669 2.059,-0.845 1.669,-0.845 1.336,0 0,0 z M 0.668,1.748 0.151,0.385 1.186,0.385 0.668,1.748 z" inkscape:connector-curvature="0"/>
      </g>
      <g id="g3047" transform="matrix(1.25,0,0,-1.25,-162.1793,718.47916)">
        <g clip-path="url(#clipPath3051)" id="g3049">
          <g transform="translate(122.0965,247.3371)" id="g3055">
            <path id="path3057" style="fill:#1d50a0;fill-opacity:1;fill-rule:nonzero;stroke:none" d="M 0,0 0,-0.134 C 0,-1.059 -0.564,-1.77 -1.379,-1.77 -2.194,-1.77 -2.85,-0.957 -2.85,-0.022 -2.85,0.948 -2.178,1.744 -1.34,1.744 -0.888,1.744 -0.44,1.507 -0.154,1.091 L -0.409,0.809 C -0.618,1.14 -0.969,1.359 -1.325,1.359 -1.977,1.359 -2.487,0.747 -2.487,-0.009 -2.487,-0.715 -1.985,-1.386 -1.356,-1.386 -0.904,-1.386 -0.417,-0.934 -0.402,-0.384 L -1.155,-0.384 -1.155,0 0,0 z" inkscape:connector-curvature="0"/>
          </g>
        </g>
      </g>
      <g transform="matrix(1.25,0,0,-1.25,-9.0904281,407.21728)" id="g3059">
        <path id="path3061" style="fill:#1d50a0;fill-opacity:1;fill-rule:nonzero;stroke:none" d="M 0,0 1.564,0 1.564,-0.385 0.363,-0.385 0.363,-1.328 1.529,-1.328 1.529,-1.712 0.363,-1.712 0.363,-2.987 1.564,-2.987 1.564,-3.371 0,-3.371 0,0 z" inkscape:connector-curvature="0"/>
      </g>
      <g transform="matrix(1.25,0,0,-1.25,-6.4446781,407.01629)" id="g3063">
        <path id="path3065" style="fill:#1d50a0;fill-opacity:1;fill-rule:nonzero;stroke:none" d="M 0,0 2.186,-2.651 2.186,-0.161 2.549,-0.161 2.549,-3.671 0.363,-1.019 0.363,-3.532 0,-3.532 0,0 z" inkscape:connector-curvature="0"/>
      </g>
      <g id="g3067" transform="matrix(1.25,0,0,-1.25,-162.1793,718.47916)">
        <g clip-path="url(#clipPath3071)" id="g3069">
          <g transform="translate(129.8519,248.3656)" id="g3075">
            <path id="path3077" style="fill:#1d50a0;fill-opacity:1;fill-rule:nonzero;stroke:none" d="M 0,0 C -0.209,0.214 -0.494,0.331 -0.769,0.331 -1.421,0.331 -1.919,-0.3 -1.919,-1.046 -1.919,-1.784 -1.425,-2.414 -0.776,-2.414 -0.491,-2.414 -0.216,-2.289 0,-2.066 L 0,-2.562 C -0.224,-2.714 -0.51,-2.799 -0.765,-2.799 -1.595,-2.799 -2.283,-2.034 -2.283,-1.06 -2.283,-0.063 -1.591,0.715 -0.734,0.715 -0.479,0.715 -0.22,0.644 0,0.487 L 0,0 z" inkscape:connector-curvature="0"/>
          </g>
        </g>
      </g>
      <g transform="matrix(1.25,0,0,-1.25,0.77269192,407.21728)" id="g3079">
        <path id="path3081" style="fill:#1d50a0;fill-opacity:1;fill-rule:nonzero;stroke:none" d="M 0,0 1.564,0 1.564,-0.385 0.363,-0.385 0.363,-1.328 1.529,-1.328 1.529,-1.712 0.363,-1.712 0.363,-2.987 1.564,-2.987 1.564,-3.371 0,-3.371 0,0 z" inkscape:connector-curvature="0"/>
      </g>
      <g transform="matrix(1.25,0,0,-1.25,4.8326919,407.01629)" id="g3083">
        <path id="path3085" style="fill:#1d50a0;fill-opacity:1;fill-rule:nonzero;stroke:none" d="M 0,0 2.186,-2.651 2.186,-0.161 2.549,-0.161 2.549,-3.671 0.363,-1.019 0.363,-3.532 0,-3.532 0,0 z" inkscape:connector-curvature="0"/>
      </g>
      <g transform="matrix(1.25,0,0,-1.25,9.2790719,410.37516)" id="g3087">
        <path id="path3089" style="fill:#1d50a0;fill-opacity:1;fill-rule:nonzero;stroke:none" d="M 0,0 -0.332,-0.845 -0.722,-0.845 0.668,2.669 2.059,-0.845 1.668,-0.845 1.336,0 0,0 z M 0.668,1.748 0.15,0.385 1.186,0.385 0.668,1.748 z" inkscape:connector-curvature="0"/>
      </g>
      <g transform="matrix(1.25,0,0,-1.25,12.847572,411.43141)" id="g3091">
        <path id="path3093" style="fill:#1d50a0;fill-opacity:1;fill-rule:nonzero;stroke:none" d="M 0,0 -0.363,0 -0.363,2.987 -1.054,2.987 -1.054,3.371 0.691,3.371 0.691,2.987 0,2.987 0,0 z" inkscape:connector-curvature="0"/>
      </g>
      <path id="path3095" style="fill:#1d50a0;fill-opacity:1;fill-rule:nonzero;stroke:none" d="M 14.150697,411.43166 14.604447,411.43166 14.604447,407.21791 14.150697,407.21791 14.150697,411.43166 z" inkscape:connector-curvature="0"/>
      <g id="g3097" transform="matrix(1.25,0,0,-1.25,-162.1793,718.47916)">
        <g clip-path="url(#clipPath3101)" id="g3099">
          <g transform="translate(144.8955,247.3239)" id="g3105">
            <path id="path3107" style="fill:#1d50a0;fill-opacity:1;fill-rule:nonzero;stroke:none" d="M 0,0 C 0,-1.002 -0.684,-1.757 -1.526,-1.757 -2.368,-1.757 -3.051,-1.002 -3.051,0 -3.051,0.966 -2.36,1.757 -1.526,1.757 -0.691,1.757 0,0.966 0,0 M -0.363,0 C -0.363,0.742 -0.842,1.364 -1.526,1.364 -2.209,1.364 -2.688,0.742 -2.688,0 -2.688,-0.769 -2.155,-1.364 -1.526,-1.364 -0.896,-1.364 -0.363,-0.769 -0.363,0" inkscape:connector-curvature="0"/>
          </g>
        </g>
      </g>
      <g transform="matrix(1.25,0,0,-1.25,19.277702,407.01629)" id="g3109">
        <path id="path3111" style="fill:#1d50a0;fill-opacity:1;fill-rule:nonzero;stroke:none" d="M 0,0 2.186,-2.651 2.186,-0.161 2.549,-0.161 2.549,-3.671 0.363,-1.019 0.363,-3.532 0,-3.532 0,0 z" inkscape:connector-curvature="0"/>
      </g>
      <g transform="matrix(1.25,0,0,-1.25,23.724192,410.37516)" id="g3113">
        <path id="path3115" style="fill:#1d50a0;fill-opacity:1;fill-rule:nonzero;stroke:none" d="M 0,0 -0.332,-0.845 -0.722,-0.845 0.668,2.669 2.059,-0.845 1.668,-0.845 1.336,0 0,0 z M 0.668,1.748 0.151,0.385 1.186,0.385 0.668,1.748 z" inkscape:connector-curvature="0"/>
      </g>
      <g transform="matrix(1.25,0,0,-1.25,27.151572,410.95054)" id="g3117">
        <path id="path3119" style="fill:#1d50a0;fill-opacity:1;fill-rule:nonzero;stroke:none" d="M 0,0 0.885,0 0.885,-0.385 -0.363,-0.385 -0.363,2.987 0,2.987 0,0 z" inkscape:connector-curvature="0"/>
      </g>
      <g transform="matrix(1.25,0,0,-1.25,28.730442,407.21728)" id="g3121">
        <path id="path3123" style="fill:#1d50a0;fill-opacity:1;fill-rule:nonzero;stroke:none" d="M 0,0 1.564,0 1.564,-0.385 0.363,-0.385 0.363,-1.328 1.53,-1.328 1.53,-1.712 0.363,-1.712 0.363,-2.987 1.564,-2.987 1.564,-3.371 0,-3.371 0,0 z" inkscape:connector-curvature="0"/>
      </g>
      <g id="g3125" transform="matrix(1.25,0,0,-1.25,-162.1793,718.47916)">
        <g clip-path="url(#clipPath3129)" id="g3127">
          <g transform="translate(156.0415,249.0095)" id="g3133">
            <path id="path3135" style="fill:#1d50a0;fill-opacity:1;fill-rule:nonzero;stroke:none" d="M 0,0 0.603,0 C 1.495,0 2.236,-0.545 2.236,-1.668 2.236,-2.817 1.51,-3.371 0.591,-3.371 L 0,-3.371 0,0 z M 0.363,-2.987 0.491,-2.987 C 1.232,-2.987 1.873,-2.665 1.873,-1.686 1.873,-0.702 1.232,-0.385 0.491,-0.385 L 0.363,-0.385 0.363,-2.987 z" inkscape:connector-curvature="0"/>
          </g>
        </g>
      </g>
      <g transform="matrix(1.25,0,0,-1.25,36.218072,407.21728)" id="g3137">
        <path id="path3139" style="fill:#1d50a0;fill-opacity:1;fill-rule:nonzero;stroke:none" d="M 0,0 1.564,0 1.564,-0.385 0.363,-0.385 0.363,-1.328 1.529,-1.328 1.529,-1.712 0.363,-1.712 0.363,-2.987 1.564,-2.987 1.564,-3.371 0,-3.371 0,0 z" inkscape:connector-curvature="0"/>
      </g>
      <g transform="matrix(1.25,0,0,-1.25,40.388942,410.95054)" id="g3141">
        <path id="path3143" style="fill:#1d50a0;fill-opacity:1;fill-rule:nonzero;stroke:none" d="M 0,0 0.884,0 0.884,-0.385 -0.363,-0.385 -0.363,2.987 0,2.987 0,0 z" inkscape:connector-curvature="0"/>
      </g>
      <g transform="matrix(1.25,0,0,-1.25,42.793322,410.37516)" id="g3145">
        <path id="path3147" style="fill:#1d50a0;fill-opacity:1;fill-rule:nonzero;stroke:none" d="M 0,0 -0.332,-0.845 -0.722,-0.845 0.668,2.669 2.058,-0.845 1.668,-0.845 1.337,0 0,0 z M 0.668,1.748 0.151,0.385 1.186,0.385 0.668,1.748 z" inkscape:connector-curvature="0"/>
      </g>
      <g id="g3149" transform="matrix(1.25,0,0,-1.25,-162.1793,718.47916)">
        <g clip-path="url(#clipPath3153)" id="g3151">
          <g transform="translate(169.362,245.6382)" id="g3157">
            <path id="path3159" style="fill:#1d50a0;fill-opacity:1;fill-rule:nonzero;stroke:none" d="M 0,0 -0.44,0 -1.298,1.426 -1.448,1.426 -1.448,0 -1.812,0 -1.812,3.371 -1.371,3.371 C -1.112,3.371 -0.834,3.367 -0.603,3.215 -0.359,3.049 -0.22,2.732 -0.22,2.41 -0.22,1.927 -0.498,1.525 -0.919,1.466 L 0,0 z M -1.448,1.775 -1.332,1.775 C -0.962,1.775 -0.56,1.856 -0.56,2.392 -0.56,2.92 -0.993,2.995 -1.352,2.995 L -1.448,2.995 -1.448,1.775 z" inkscape:connector-curvature="0"/>
          </g>
        </g>
      </g>
      <g transform="matrix(1.25,0,0,-1.25,49.976692,407.21728)" id="g3161">
        <path id="path3163" style="fill:#1d50a0;fill-opacity:1;fill-rule:nonzero;stroke:none" d="M 0,0 1.564,0 1.564,-0.385 0.363,-0.385 0.363,-1.328 1.529,-1.328 1.529,-1.712 0.363,-1.712 0.363,-2.987 1.564,-2.987 1.564,-3.371 0,-3.371 0,0 z" inkscape:connector-curvature="0"/>
      </g>
      <g id="g3165" transform="matrix(1.25,0,0,-1.25,-162.1793,718.47916)">
        <g clip-path="url(#clipPath3169)" id="g3167">
          <g transform="translate(173.9349,248.3656)" id="g3173">
            <path id="path3175" style="fill:#1d50a0;fill-opacity:1;fill-rule:nonzero;stroke:none" d="M 0,0 C -0.208,0.214 -0.494,0.331 -0.768,0.331 -1.421,0.331 -1.919,-0.3 -1.919,-1.046 -1.919,-1.784 -1.425,-2.414 -0.776,-2.414 -0.49,-2.414 -0.216,-2.289 0,-2.066 L 0,-2.562 C -0.224,-2.714 -0.509,-2.799 -0.765,-2.799 -1.595,-2.799 -2.282,-2.034 -2.282,-1.06 -2.282,-0.063 -1.591,0.715 -0.734,0.715 -0.479,0.715 -0.22,0.644 0,0.487 L 0,0 z" inkscape:connector-curvature="0"/>
          </g>
        </g>
      </g>
      <g transform="matrix(1.25,0,0,-1.25,58.025322,408.91666)" id="g3177">
        <path id="path3179" style="fill:#1d50a0;fill-opacity:1;fill-rule:nonzero;stroke:none" d="M 0,0 0,1.359 0.363,1.359 0.363,-2.012 0,-2.012 0,-0.393 -1.387,-0.393 -1.387,-2.012 -1.75,-2.012 -1.75,1.359 -1.387,1.359 -1.387,0 0,0 z" inkscape:connector-curvature="0"/>
      </g>
      <g transform="matrix(1.25,0,0,-1.25,59.232072,407.21728)" id="g3181">
        <path id="path3183" style="fill:#1d50a0;fill-opacity:1;fill-rule:nonzero;stroke:none" d="M 0,0 1.564,0 1.564,-0.385 0.363,-0.385 0.363,-1.328 1.529,-1.328 1.529,-1.712 0.363,-1.712 0.363,-2.987 1.564,-2.987 1.564,-3.371 0,-3.371 0,0 z" inkscape:connector-curvature="0"/>
      </g>
      <g id="g3185" transform="matrix(1.25,0,0,-1.25,-162.1793,718.47916)">
        <g clip-path="url(#clipPath3189)" id="g3187">
          <g transform="translate(181.0297,245.6382)" id="g3193">
            <path id="path3195" style="fill:#1d50a0;fill-opacity:1;fill-rule:nonzero;stroke:none" d="M 0,0 -0.44,0 -1.298,1.426 -1.448,1.426 -1.448,0 -1.811,0 -1.811,3.371 -1.371,3.371 C -1.112,3.371 -0.834,3.367 -0.603,3.215 -0.359,3.049 -0.22,2.732 -0.22,2.41 -0.22,1.927 -0.498,1.525 -0.919,1.466 L 0,0 z M -1.448,1.775 -1.332,1.775 C -0.962,1.775 -0.56,1.856 -0.56,2.392 -0.56,2.92 -0.993,2.995 -1.352,2.995 L -1.448,2.995 -1.448,1.775 z" inkscape:connector-curvature="0"/>
          </g>
          <g transform="translate(183.5129,248.3656)" id="g3197">
            <path id="path3199" style="fill:#1d50a0;fill-opacity:1;fill-rule:nonzero;stroke:none" d="M 0,0 C -0.208,0.214 -0.494,0.331 -0.768,0.331 -1.421,0.331 -1.919,-0.3 -1.919,-1.046 -1.919,-1.784 -1.425,-2.414 -0.776,-2.414 -0.49,-2.414 -0.216,-2.289 0,-2.066 L 0,-2.562 C -0.224,-2.714 -0.51,-2.799 -0.765,-2.799 -1.595,-2.799 -2.282,-2.034 -2.282,-1.06 -2.282,-0.063 -1.591,0.715 -0.734,0.715 -0.479,0.715 -0.22,0.644 0,0.487 L 0,0 z" inkscape:connector-curvature="0"/>
          </g>
        </g>
      </g>
      <g transform="matrix(1.25,0,0,-1.25,69.997822,408.91666)" id="g3201">
        <path id="path3203" style="fill:#1d50a0;fill-opacity:1;fill-rule:nonzero;stroke:none" d="M 0,0 0,1.359 0.363,1.359 0.363,-2.012 0,-2.012 0,-0.393 -1.387,-0.393 -1.387,-2.012 -1.75,-2.012 -1.75,1.359 -1.387,1.359 -1.387,0 0,0 z" inkscape:connector-curvature="0"/>
      </g>
      <g transform="matrix(1.25,0,0,-1.25,71.204572,407.21728)" id="g3205">
        <path id="path3207" style="fill:#1d50a0;fill-opacity:1;fill-rule:nonzero;stroke:none" d="M 0,0 1.564,0 1.564,-0.385 0.363,-0.385 0.363,-1.328 1.53,-1.328 1.53,-1.712 0.363,-1.712 0.363,-2.987 1.564,-2.987 1.564,-3.371 0,-3.371 0,0 z" inkscape:connector-curvature="0"/>
      </g>
    </g>
  </g>
</svg>