<?xml version="1.0" standalone="no"?>
<!DOCTYPE svg PUBLIC "-//W3C//DTD SVG 20010904//EN"
"http://www.w3.org/TR/2001/REC-SVG-20010904/DTD/svg10.dtd"
[
 <!ATTLIST svg
  xmlns:xlink CDATA #FIXED "http://www.w3.org/1999/xlink">
]>
<!-- Created with Sodipodi ("http://www.sodipodi.com/") -->
<svg
   xmlns="http://www.w3.org/2000/svg"
   xmlns:xlink="http://www.w3.org/1999/xlink"
   width="264.109"
   height="118.997"
   viewBox="0 0 264.109 118.997"
   id="svg1">
  <defs
     id="defs17" />
  <path
     d="M 53.076 86.064 L 13.27 86.064 C 9.729 86.064 6.636 84.737 3.98 82.082 C 1.324 79.429 0 76.329 0 72.784 L 0 32.938 L 19.849 32.938 L 19.849 72.773 C 19.849 74.496 20.521 76.034 21.873 77.386 C 23.22 78.735 24.764 79.41 26.496 79.41 L 53.077 79.41 L 53.077 86.064 L 53.076 86.064 z "
     style="font-size:12;fill:#174a7c;"
     id="path3" />
  <path
     d="M 264.109 72.788 C 264.109 76.332 262.777 79.429 260.121 82.084 C 257.466 84.737 254.367 86.064 250.826 86.064 L 210.98 86.064 L 210.98 79.411 L 237.604 79.411 C 239.378 79.411 240.931 78.748 242.264 77.417 C 243.593 76.092 244.258 74.541 244.258 72.773 C 244.258 70.335 241.374 68.061 235.607 65.933 C 226.646 62.615 221.318 60.466 219.633 59.494 C 213.862 56.131 210.98 51.704 210.98 46.218 C 210.98 42.679 212.307 39.579 214.964 36.925 C 217.618 34.271 220.719 32.939 224.262 32.939 L 264.109 32.939 L 264.109 39.595 L 237.485 39.595 C 235.709 39.595 234.154 40.263 232.823 41.589 C 231.491 42.917 230.826 44.467 230.826 46.235 C 230.826 48.672 233.709 50.949 239.479 53.072 C 248.443 56.395 253.767 58.538 255.454 59.513 C 261.221 62.877 264.109 67.301 264.109 72.788 z "
     style="font-size:12;fill:#174a7c;"
     id="path4" />
  <path
     d="M 66.589 115.43 C 66.589 113.46 68.184 111.865 70.152 111.865 L 83.95 111.865 C 85.921 111.865 87.516 113.461 87.516 115.43 C 87.516 117.4 85.921 118.997 83.95 118.997 L 70.152 118.997 C 68.184 118.997 66.589 117.399 66.589 115.43 z "
     style="font-size:12;fill:#ee3424;"
     id="path5" />
  <path
     d="M 66.589 104.461 C 66.589 102.488 68.184 100.893 70.152 100.893 L 83.95 100.893 C 85.921 100.893 87.516 102.489 87.516 104.461 C 87.516 106.429 85.921 108.023 83.95 108.023 L 70.152 108.023 C 68.184 108.023 66.589 106.429 66.589 104.461 z "
     style="font-size:12;fill:#717ca1;"
     id="path6" />
  <path
     d="M 66.589 93.487 C 66.589 91.518 68.184 89.921 70.152 89.921 L 83.95 89.921 C 85.921 89.921 87.516 91.519 87.516 93.487 C 87.516 95.456 85.921 97.053 83.95 97.053 L 70.152 97.053 C 68.184 97.054 66.589 95.456 66.589 93.487 z "
     style="font-size:12;fill:#999eb9;"
     id="path7" />
  <path
     d="M 66.589 82.518 C 66.589 80.548 68.184 78.952 70.152 78.952 L 83.95 78.952 C 85.921 78.952 87.516 80.549 87.516 82.518 C 87.516 84.486 85.921 86.082 83.95 86.082 L 70.152 86.082 C 68.184 86.082 66.589 84.485 66.589 82.518 z "
     style="font-size:12;fill:#d1d0de;"
     id="path8" />
  <path
     d="M 67.074 32.925 L 86.918 32.925 L 86.918 72.461 L 67.074 72.461 L 67.074 32.925 z "
     style="font-size:12;fill:#174a7c;"
     id="path9" />
  <path
     d="M 197.518 3.566 C 197.518 5.536 195.926 7.13 193.955 7.13 L 180.159 7.13 C 178.192 7.13 176.593 5.535 176.593 3.566 C 176.593 1.596 178.193 -1.99276e-16 180.159 -1.99276e-16 L 193.955 -1.99276e-16 C 195.926 0 197.518 1.596 197.518 3.566 z "
     style="font-size:12;fill:#ee3424;"
     id="path10" />
  <path
     d="M 197.518 14.536 C 197.518 16.507 195.926 18.102 193.955 18.102 L 180.159 18.102 C 178.192 18.102 176.593 16.507 176.593 14.536 C 176.593 12.568 178.193 10.973 180.159 10.973 L 193.955 10.973 C 195.926 10.973 197.518 12.568 197.518 14.536 z "
     style="font-size:12;fill:#717ca1;"
     id="path11" />
  <path
     d="M 197.518 25.509 C 197.518 27.477 195.926 29.073 193.955 29.073 L 180.159 29.073 C 178.192 29.073 176.593 27.477 176.593 25.509 C 176.593 23.539 178.193 21.943 180.159 21.943 L 193.955 21.943 C 195.926 21.943 197.518 23.539 197.518 25.509 z "
     style="font-size:12;fill:#999eb9;"
     id="path12" />
  <path
     d="M 197.518 36.479 C 197.518 38.448 195.926 40.045 193.955 40.045 L 180.159 40.045 C 178.192 40.045 176.593 38.448 176.593 36.479 C 176.593 34.509 178.193 32.913 180.159 32.913 L 193.955 32.913 C 195.926 32.914 197.518 34.51 197.518 36.479 z "
     style="font-size:12;fill:#d1d0de;"
     id="path13" />
  <path
     d="M 197.037 86.07 L 177.188 86.07 L 177.188 46.537 L 197.037 46.537 L 197.037 86.07 z "
     style="font-size:12;fill:#174a7c;"
     id="path14" />
  <path
     d="M 161.546 80.716 L 153.391 68.886 C 151.756 66.262 150.657 63.447 153.53 61.88 L 153.53 61.877 C 160.533 59.143 165.217 54.224 165.217 48.597 C 165.217 40.001 154.306 32.919 140.852 32.919 L 100.139 32.919 L 100.139 86.05 L 119.982 86.05 L 119.982 40.062 L 119.995 40.065 C 119.995 40.065 129.318 40.065 133.488 40.065 C 141.249 40.065 147.547 44.086 147.547 49.046 C 147.547 50.358 147.092 51.602 146.306 52.724 C 145.626 53.791 144.396 54.974 143.441 55.877 C 140.707 58.469 134.947 60.195 133.368 61.06 C 130.391 62.681 131.531 65.597 133.222 68.315 L 145.532 86.053 L 165.379 86.053 L 161.546 80.716 z "
     style="font-size:12;fill:#174a7c;"
     id="path15" />
</svg>
