<?xml version="1.0" encoding="UTF-8" standalone="no"?>
<!-- Created with Inkscape (http://www.inkscape.org/) -->

<svg
   xmlns:dc="http://purl.org/dc/elements/1.1/"
   xmlns:cc="http://creativecommons.org/ns#"
   xmlns:rdf="http://www.w3.org/1999/02/22-rdf-syntax-ns#"
   xmlns:svg="http://www.w3.org/2000/svg"
   xmlns="http://www.w3.org/2000/svg"
   xmlns:sodipodi="http://sodipodi.sourceforge.net/DTD/sodipodi-0.dtd"
   xmlns:inkscape="http://www.inkscape.org/namespaces/inkscape"
   width="80.65625"
   height="60.59375"
   id="svg4841"
   version="1.1"
   inkscape:version="0.48.4 r9939"
   sodipodi:docname="New document 28">
  <defs
     id="defs4843" />
  <sodipodi:namedview
     id="base"
     pagecolor="#ffffff"
     bordercolor="#666666"
     borderopacity="1.0"
     inkscape:pageopacity="0.0"
     inkscape:pageshadow="2"
     inkscape:zoom="5.6"
     inkscape:cx="50.814574"
     inkscape:cy="42.197206"
     inkscape:document-units="px"
     inkscape:current-layer="layer1"
     showgrid="false"
     fit-margin-top="0"
     fit-margin-left="0"
     fit-margin-right="0"
     fit-margin-bottom="0"
     inkscape:window-width="1855"
     inkscape:window-height="1056"
     inkscape:window-x="65"
     inkscape:window-y="24"
     inkscape:window-maximized="1" />
  <metadata
     id="metadata4846">
    <rdf:RDF>
      <cc:Work
         rdf:about="">
        <dc:format>image/svg+xml</dc:format>
        <dc:type
           rdf:resource="http://purl.org/dc/dcmitype/StillImage" />
        <dc:title></dc:title>
      </cc:Work>
    </rdf:RDF>
  </metadata>
  <g
     inkscape:label="Layer 1"
     inkscape:groupmode="layer"
     id="layer1"
     transform="translate(-165.75,-921)">
    <rect
       style="opacity:0.98000004;fill:#a2a2a2;fill-opacity:0.93333333;stroke:#000000;stroke-width:0.5;stroke-miterlimit:4;stroke-opacity:1;stroke-dasharray:none;stroke-dashoffset:0"
       id="rect2985-7-7-7-5-1-5"
       width="20.03474"
       height="20.03474"
       x="166.00192"
       y="961.30817" />
    <rect
       style="opacity:0.98000004;fill:#867979;fill-opacity:0.93333333;stroke:#000000;stroke-width:0.5;stroke-miterlimit:4;stroke-opacity:1;stroke-dasharray:none;stroke-dashoffset:0"
       id="rect2985-7-7-7-5-1"
       width="20.03474"
       height="20.03474"
       x="186.03667"
       y="961.30817" />
    <rect
       style="opacity:0.98000004;fill:#867979;fill-opacity:0.93333333;stroke:#000000;stroke-width:0.5;stroke-miterlimit:4;stroke-opacity:1;stroke-dasharray:none;stroke-dashoffset:0"
       id="rect2985-7-7-7"
       width="20.03474"
       height="20.03474"
       x="226.10616"
       y="961.30817" />
    <rect
       style="opacity:0.98000004;fill:#867979;fill-opacity:0.93333333;stroke:#000000;stroke-width:0.5;stroke-miterlimit:4;stroke-opacity:1;stroke-dasharray:none;stroke-dashoffset:0"
       id="rect2985-7-7-7-5"
       width="20.03474"
       height="20.03474"
       x="206.07141"
       y="961.30817" />
    <rect
       style="opacity:0.98000004;fill:#ffffff;fill-opacity:0.93333333;stroke:#000000;stroke-width:0.5;stroke-miterlimit:4;stroke-opacity:1;stroke-dasharray:none;stroke-dashoffset:0"
       id="rect2985-7-7-7-5-1-58-2-0"
       width="20.03474"
       height="20.03474"
       x="226.10616"
       y="921.23865" />
    <rect
       style="opacity:0.98000004;fill:#ffffff;fill-opacity:0.93333333;stroke:#000000;stroke-width:0.5;stroke-miterlimit:4;stroke-opacity:1;stroke-dasharray:none;stroke-dashoffset:0"
       id="rect2985-7-7-7-5-1-58-2-7"
       width="20.03474"
       height="20.03474"
       x="206.07141"
       y="921.23865" />
    <rect
       style="opacity:0.98000004;fill:#ffffff;fill-opacity:0.93333333;stroke:#000000;stroke-width:0.5;stroke-miterlimit:4;stroke-opacity:1;stroke-dasharray:none;stroke-dashoffset:0"
       id="rect2985-7-7-7-5-1-58-2-1"
       width="20.03474"
       height="20.03474"
       x="186.03667"
       y="921.23871" />
    <rect
       style="opacity:0.98000004;fill:#ffffff;fill-opacity:0.93333333;stroke:#000000;stroke-width:0.5;stroke-miterlimit:4;stroke-opacity:1;stroke-dasharray:none;stroke-dashoffset:0"
       id="rect2985-7-7-7-5-1-58-2-6"
       width="20.03474"
       height="20.03474"
       x="166.00192"
       y="921.23871" />
    <rect
       style="opacity:0.98000004;fill:#e4dede;fill-opacity:0.93333333;stroke:#000000;stroke-width:0.5;stroke-miterlimit:4;stroke-opacity:1;stroke-dasharray:none;stroke-dashoffset:0"
       id="rect2985-7-7-7-5-1-58-0"
       width="20.03474"
       height="20.03474"
       x="186.03667"
       y="941.27344" />
    <rect
       style="opacity:0.98000004;fill:#ffffff;fill-opacity:0.93333333;stroke:#000000;stroke-width:0.5;stroke-miterlimit:4;stroke-opacity:1;stroke-dasharray:none;stroke-dashoffset:0"
       id="rect2985-7-7-7-5-1-58"
       width="20.03474"
       height="20.03474"
       x="166.00192"
       y="941.27344" />
    <rect
       style="opacity:0.98000004;fill:#a2a2a2;fill-opacity:0.93333333;stroke:#000000;stroke-width:0.5;stroke-miterlimit:4;stroke-opacity:1;stroke-dasharray:none;stroke-dashoffset:0"
       id="rect2985-7-7-7-5-1-5-6"
       width="20.03474"
       height="20.03474"
       x="206.07144"
       y="941.27344" />
    <rect
       style="opacity:0.98000004;fill:#ffffff;fill-opacity:0.93333333;stroke:#000000;stroke-width:0.5;stroke-miterlimit:4;stroke-opacity:1;stroke-dasharray:none;stroke-dashoffset:0"
       id="rect2985-7-7-7-5-1-58-2"
       width="20.03474"
       height="20.03474"
       x="226.10616"
       y="941.27338" />
    <path
       sodipodi:type="arc"
       style="opacity:0.98000004;fill:#ff0000;fill-opacity:0.94509804;stroke:#000000;stroke-width:0.5;stroke-miterlimit:4;stroke-opacity:1;stroke-dasharray:none;stroke-dashoffset:0"
       id="path4029-6"
       sodipodi:cx="206.78572"
       sodipodi:cy="556.20148"
       sodipodi:rx="17.5"
       sodipodi:ry="4.375"
       d="m 224.28572,556.20148 c 0,2.41624 -7.83502,4.375 -17.5,4.375 -9.66498,0 -17.5,-1.95876 -17.5,-4.375 0,-2.41625 7.83502,-4.375 17.5,-4.375 9.66498,0 17.5,1.95875 17.5,4.375 z"
       transform="matrix(0.06349205,0,0,0.2539682,157.8814,829.81797)" />
    <path
       sodipodi:type="arc"
       style="opacity:0.98000004;fill:#ff0000;fill-opacity:0.94509804;stroke:#000000;stroke-width:0.5;stroke-miterlimit:4;stroke-opacity:1;stroke-dasharray:none;stroke-dashoffset:0"
       id="path4029-5-0"
       sodipodi:cx="206.78572"
       sodipodi:cy="556.20148"
       sodipodi:rx="17.5"
       sodipodi:ry="4.375"
       d="m 224.28572,556.20148 c 0,2.41624 -7.83502,4.375 -17.5,4.375 -9.66498,0 -17.5,-1.95876 -17.5,-4.375 0,-2.41625 7.83502,-4.375 17.5,-4.375 9.66498,0 17.5,1.95875 17.5,4.375 z"
       transform="matrix(0.06349205,0,0,0.2539682,167.89876,829.81797)" />
    <path
       sodipodi:type="arc"
       style="opacity:0.98000004;fill:#ff0000;fill-opacity:0.94509804;stroke:#000000;stroke-width:0.5;stroke-miterlimit:4;stroke-opacity:1;stroke-dasharray:none;stroke-dashoffset:0"
       id="path4029-8-1"
       sodipodi:cx="206.78572"
       sodipodi:cy="556.20148"
       sodipodi:rx="17.5"
       sodipodi:ry="4.375"
       d="m 224.28572,556.20148 c 0,2.41624 -7.83502,4.375 -17.5,4.375 -9.66498,0 -17.5,-1.95876 -17.5,-4.375 0,-2.41625 7.83502,-4.375 17.5,-4.375 9.66498,0 17.5,1.95875 17.5,4.375 z"
       transform="matrix(0.06349205,0,0,0.2539682,173.15744,825.05931)" />
    <path
       sodipodi:type="arc"
       style="opacity:0.98000004;fill:#ff0000;fill-opacity:0.94509804;stroke:#000000;stroke-width:0.5;stroke-miterlimit:4;stroke-opacity:1;stroke-dasharray:none;stroke-dashoffset:0"
       id="path4029-7-3"
       sodipodi:cx="206.78572"
       sodipodi:cy="556.20148"
       sodipodi:rx="17.5"
       sodipodi:ry="4.375"
       d="m 224.28572,556.20148 c 0,2.41624 -7.83502,4.375 -17.5,4.375 -9.66498,0 -17.5,-1.95876 -17.5,-4.375 0,-2.41625 7.83502,-4.375 17.5,-4.375 9.66498,0 17.5,1.95875 17.5,4.375 z"
       transform="matrix(0.06349205,0,0,0.2539682,187.93349,809.7833)" />
    <path
       sodipodi:type="arc"
       style="opacity:0.98000004;fill:#ff0000;fill-opacity:0.94509804;stroke:#000000;stroke-width:0.5;stroke-miterlimit:4;stroke-opacity:1;stroke-dasharray:none;stroke-dashoffset:0"
       id="path4029-4-3"
       sodipodi:cx="206.78572"
       sodipodi:cy="556.20148"
       sodipodi:rx="17.5"
       sodipodi:ry="4.375"
       d="m 224.28572,556.20148 c 0,2.41624 -7.83502,4.375 -17.5,4.375 -9.66498,0 -17.5,-1.95876 -17.5,-4.375 0,-2.41625 7.83502,-4.375 17.5,-4.375 9.66498,0 17.5,1.95875 17.5,4.375 z"
       transform="matrix(0.06349205,0,0,0.2539682,207.96822,809.7833)" />
    <path
       sodipodi:type="arc"
       style="opacity:0.98000004;fill:#ff0000;fill-opacity:0.94509804;stroke:#000000;stroke-width:0.5;stroke-miterlimit:4;stroke-opacity:1;stroke-dasharray:none;stroke-dashoffset:0"
       id="path4029-83-7"
       sodipodi:cx="206.78572"
       sodipodi:cy="556.20148"
       sodipodi:rx="17.5"
       sodipodi:ry="4.375"
       d="m 224.28572,556.20148 c 0,2.41624 -7.83502,4.375 -17.5,4.375 -9.66498,0 -17.5,-1.95876 -17.5,-4.375 0,-2.41625 7.83502,-4.375 17.5,-4.375 9.66498,0 17.5,1.95875 17.5,4.375 z"
       transform="matrix(0.06349205,0,0,0.2539682,177.91613,820.30065)" />
    <path
       sodipodi:type="arc"
       style="opacity:0.98000004;fill:#ff0000;fill-opacity:0.94509804;stroke:#000000;stroke-width:0.5;stroke-miterlimit:4;stroke-opacity:1;stroke-dasharray:none;stroke-dashoffset:0"
       id="path4029-76-0"
       sodipodi:cx="206.78572"
       sodipodi:cy="556.20148"
       sodipodi:rx="17.5"
       sodipodi:ry="4.375"
       d="m 224.28572,556.20148 c 0,2.41624 -7.83502,4.375 -17.5,4.375 -9.66498,0 -17.5,-1.95876 -17.5,-4.375 0,-2.41625 7.83502,-4.375 17.5,-4.375 9.66498,0 17.5,1.95875 17.5,4.375 z"
       transform="matrix(0.06349205,0,0,0.2539682,182.67481,815.04198)" />
    <path
       sodipodi:type="arc"
       style="opacity:0.98000004;fill:#ff0000;fill-opacity:0.94509804;stroke:#000000;stroke-width:0.5;stroke-miterlimit:4;stroke-opacity:1;stroke-dasharray:none;stroke-dashoffset:0"
       id="path4029-1-3"
       sodipodi:cx="206.78572"
       sodipodi:cy="556.20148"
       sodipodi:rx="17.5"
       sodipodi:ry="4.375"
       d="m 224.28572,556.20148 c 0,2.41624 -7.83502,4.375 -17.5,4.375 -9.66498,0 -17.5,-1.95876 -17.5,-4.375 0,-2.41625 7.83502,-4.375 17.5,-4.375 9.66498,0 17.5,1.95875 17.5,4.375 z"
       transform="matrix(0.06349205,0,0,0.2539682,212.72691,815.04198)" />
    <path
       sodipodi:type="arc"
       style="opacity:0.98000004;fill:#ff0000;fill-opacity:0.94509804;stroke:#000000;stroke-width:0.5;stroke-miterlimit:4;stroke-opacity:1;stroke-dasharray:none;stroke-dashoffset:0"
       id="path4029-2-0"
       sodipodi:cx="206.78572"
       sodipodi:cy="556.20148"
       sodipodi:rx="17.5"
       sodipodi:ry="4.375"
       d="m 224.28572,556.20148 c 0,2.41624 -7.83502,4.375 -17.5,4.375 -9.66498,0 -17.5,-1.95876 -17.5,-4.375 0,-2.41625 7.83502,-4.375 17.5,-4.375 9.66498,0 17.5,1.95875 17.5,4.375 z"
       transform="matrix(0.06349205,0,0,0.2539682,217.98558,819.80063)" />
    <path
       sodipodi:type="arc"
       style="opacity:0.98000004;fill:#ff0000;fill-opacity:0.94509804;stroke:#000000;stroke-width:0.5;stroke-miterlimit:4;stroke-opacity:1;stroke-dasharray:none;stroke-dashoffset:0"
       id="path4029-0-3"
       sodipodi:cx="206.78572"
       sodipodi:cy="556.20148"
       sodipodi:rx="17.5"
       sodipodi:ry="4.375"
       d="m 224.28572,556.20148 c 0,2.41624 -7.83502,4.375 -17.5,4.375 -9.66498,0 -17.5,-1.95876 -17.5,-4.375 0,-2.41625 7.83502,-4.375 17.5,-4.375 9.66498,0 17.5,1.95875 17.5,4.375 z"
       transform="matrix(0.06349205,0,0,0.2539682,228.00295,820.30065)" />
    <path
       style="fill:none;stroke:#ff0a00;stroke-width:1px;stroke-linecap:butt;stroke-linejoin:miter;stroke-opacity:1"
       d="m 246.14088,961.26082 -5.00868,0.0473 -10.01736,0 -5.00868,-5.00867 -5.00869,-5.00866 -10.01736,0 -10.01736,0 -5.00869,5.00866 -5.00868,5.00867 -5.00868,5.00867 -5.00868,5.00867 -10.01738,0 -5.00867,0.0522"
       id="path4137-5"
       inkscape:connector-curvature="0"
       sodipodi:nodetypes="ccccccccccccc" />
    <path
       sodipodi:type="arc"
       style="opacity:0.98000004;fill:#000000;fill-opacity:0.94509804;stroke:#000000;stroke-width:0.5;stroke-miterlimit:4;stroke-opacity:1;stroke-dasharray:none;stroke-dashoffset:0"
       id="path4029-55-7"
       sodipodi:cx="206.78572"
       sodipodi:cy="556.20148"
       sodipodi:rx="17.5"
       sodipodi:ry="4.375"
       d="m 224.28572,556.20148 c 0,2.41624 -7.83502,4.375 -17.5,4.375 -9.66498,0 -17.5,-1.95876 -17.5,-4.375 0,-2.41625 7.83502,-4.375 17.5,-4.375 9.66498,0 17.5,1.95875 17.5,4.375 z"
       transform="matrix(0.06349205,0,0,0.2539682,197.95086,809.7833)" />
    <path
       sodipodi:type="arc"
       style="opacity:0.98000004;fill:#ffdb69;fill-opacity:0.40639271;stroke:#000000;stroke-width:0.19537313;stroke-miterlimit:4;stroke-opacity:1;stroke-dasharray:none;stroke-dashoffset:0"
       id="path4029-55-0-3"
       sodipodi:cx="206.78572"
       sodipodi:cy="556.20148"
       sodipodi:rx="17.5"
       sodipodi:ry="4.375"
       d="m 224.28572,556.20148 c 0,2.41624 -7.83502,4.375 -17.5,4.375 -9.66498,0 -17.5,-1.95876 -17.5,-4.375 0,-2.41625 7.83502,-4.375 17.5,-4.375 9.66498,0 17.5,1.95875 17.5,4.375 z"
       transform="matrix(1.3223911,0,0,5.2895646,-62.371486,-1991.0229)" />
  </g>
</svg>
